<svg class="img-fluid" id="outputsvg" xmlns="http://www.w3.org/2000/svg" style="transform: matrix(1, 0, 0, 1, 0, 0); transform-origin: 50% 50% 0px; cursor: move; max-height: none; transition: transform 200ms ease-in-out;" width="1000" height="1000" viewBox="0 0 10000 10000"><g id="lJ3zUJopcltcu6P0RY5jV9" fill="none" style="transform: none;"><g style="transform: none;"><path id="p1CgDYeqY8" d="M0 5000 l0 -5000 5000 0 5000 0 0 5000 0 5000 -5000 0 -5000 0 0 -5000z m6250 1890 c122 -15 280 -48 360 -75 146 -50 309 -149 435 -263 l55 -51 -87 30 c-406 138 -740 171 -1228 119 -134 -14 -198 -25 -421 -70 -375 -76 -854 -212 -1444 -410 -146 -49 -284 -94 -307 -100 -71 -18 -63 -43 78 -265 67 -104 204 -322 306 -482 180 -285 186 -293 218 -293 l32 0 -4 178 c-5 269 -7 284 -32 333 -29 57 -55 85 -110 120 l-45 29 310 0 309 0 -42 -21 c-23 -11 -59 -39 -79 -61 -66 -73 -68 -86 -74 -363 l-5 -250 -252 -3 -253 -2 -44 67 c-25 38 -180 280 -344 538 -286 448 -298 470 -273 472 92 9 188 33 346 89 164 57 482 184 660 261 144 64 472 189 650 249 448 152 796 222 1150 233 28 0 89 -4 135 -9z m1398 -381 c53 -6 103 -15 111 -19 7 -4 -29 -10 -80 -13 -268 -17 -549 -163 -870 -453 -135 -122 -548 -547 -803 -827 l-188 -207 -140 0 -139 0 102 113 c56 61 210 233 343 382 420 469 513 564 683 693 117 88 282 189 365 224 72 31 78 35 78 63 1 25 2 27 11 13 12 -21 55 -23 114 -7 67 19 227 47 273 48 24 1 87 -4 140 -10z m-2884 -2385 c9 -3 16 -13 16 -21 0 -19 26 -62 338 -553 279 -440 270 -415 145 -389 -35 7 -204 13 -420 16 l-363 5 0 -272 0 -272 353 5 c203 3 373 10 402 16 139 31 277 148 344 293 71 150 97 305 88 518 -9 219 -58 352 -173 466 -94 93 -206 150 -369 187 -11 3 75 5 191 6 l210 1 46 -32 c174 -125 290 -301 349 -533 31 -120 31 -293 0 -410 -40 -155 -134 -303 -256 -404 -70 -59 -212 -127 -330 -158 l-100 -27 -595 -4 -595 -3 45 29 c64 41 115 102 133 158 11 35 17 105 20 243 l4 193 -321 -5 c-265 -4 -342 -8 -442 -26 -67 -11 -128 -23 -138 -27 -14 -6 -16 8 -15 142 1 135 2 146 14 118 19 -43 95 -108 143 -122 27 -8 151 -12 396 -12 l356 0 0 440 0 440 254 0 c140 0 261 -3 270 -6z"></path><path id="pzCNvIJwl" d="M4474 4038 c3 -29 6 -218 6 -420 l0 -368 276 0 276 0 -4 38 c-2 28 -63 130 -247 420 l-243 382 -35 0 -36 0 7 -52z"></path></g></g><g id="l72gmLvrVeVCDJ8Lw3gOqn3" fill="rgb(230,229,225)" style="transform: none;"><g style="transform: none;"><path id="p1ghc7XuQ" d="M6018 6923 c-36 -9 -20 -33 22 -33 33 0 40 3 40 20 0 20 -20 24 -62 13z"></path><path id="phH42w3Vz" d="M6180 6910 c0 -17 7 -20 40 -20 45 0 57 23 18 34 -42 11 -58 7 -58 -14z"></path><path id="p1CzXkNoY8" d="M5848 6913 c-33 -8 -20 -33 17 -33 28 0 35 4 35 20 0 20 -14 23 -52 13z"></path><path id="pFdtkfdNh" d="M6280 6901 c0 -13 6 -21 18 -21 9 0 41 -3 70 -6 43 -6 52 -4 52 9 0 15 -12 20 -97 32 -39 6 -43 5 -43 -14z"></path><path id="p8umunR5Q" d="M5760 6905 c-8 -2 -32 -6 -52 -10 -24 -4 -38 -11 -38 -20 0 -17 11 -18 88 -9 42 6 52 10 52 25 0 18 -12 21 -50 14z"></path><path id="p1E6aFaLi6" d="M6450 6872 c0 -14 13 -21 58 -30 76 -16 102 -15 102 2 0 10 -24 20 -69 30 -88 20 -91 20 -91 -2z"></path><path id="pZSfplKzg" d="M5585 6875 c-5 -2 -45 -11 -87 -20 -53 -11 -78 -21 -78 -31 0 -18 24 -18 126 3 67 14 84 21 84 35 0 17 -19 22 -45 13z"></path><path id="pgYhYEIUT" d="M6660 6816 c0 -26 17 -36 61 -36 50 0 34 24 -35 50 -23 9 -26 7 -26 -14z"></path><path id="pR737PV44" d="M5253 6798 c-79 -23 -99 -48 -38 -48 19 0 35 5 35 10 0 6 11 10 24 10 52 0 86 12 86 31 0 24 -14 23 -107 -3z"></path><path id="p5JcLcsva" d="M6800 6746 c0 -24 16 -36 51 -36 10 0 19 -7 19 -15 0 -8 6 -15 14 -15 8 0 16 -7 20 -15 3 -9 18 -15 40 -15 30 0 35 -3 38 -27 3 -25 8 -28 42 -31 24 -2 36 0 32 7 -17 26 -228 171 -249 171 -4 0 -7 -11 -7 -24z"></path><path id="p7GxDCO2v" d="M5098 6753 c-33 -8 -20 -33 17 -33 28 0 35 4 35 20 0 20 -14 23 -52 13z"></path><path id="piriX90qL" d="M4861 6672 c-119 -43 -96 -74 26 -35 44 14 53 21 53 40 0 13 -1 23 -2 22 -2 0 -36 -12 -77 -27z"></path><path id="p10jBaDD7q" d="M6090 6661 c0 -17 9 -18 95 -18 86 0 95 1 95 18 0 17 -9 19 -95 19 -86 0 -95 -2 -95 -19z"></path><path id="pRbMfXwFv" d="M5930 6650 c0 -21 10 -24 48 -14 36 10 27 34 -13 34 -28 0 -35 -4 -35 -20z"></path><path id="pBIQiTwgD" d="M6360 6656 c0 -7 10 -16 23 -20 41 -11 57 -7 57 14 0 17 -7 20 -40 20 -27 0 -40 -4 -40 -14z"></path><path id="poY0ZOX1R" d="M5820 6640 c0 -21 16 -25 58 -14 39 11 27 34 -18 34 -33 0 -40 -3 -40 -20z"></path><path id="pS0snhufI" d="M6450 6645 c0 -8 1 -15 3 -15 1 0 40 -7 87 -15 105 -19 100 -19 100 3 0 15 -13 21 -77 30 -100 16 -113 15 -113 -3z"></path><path id="p1237GG5aq" d="M5688 6643 c-30 -3 -38 -8 -38 -24 0 -19 4 -20 43 -14 83 12 97 17 97 31 0 14 -19 15 -102 7z"></path><path id="pqAJtjz3o" d="M4655 6596 c-162 -63 -185 -74 -185 -85 0 -6 16 -11 35 -11 24 0 35 5 35 15 0 10 10 15 26 15 35 0 104 21 104 32 0 4 11 8 25 8 14 0 25 5 25 10 0 6 11 10 25 10 20 0 25 5 25 25 0 14 -1 25 -2 24 -2 0 -52 -20 -113 -43z"></path><path id="p1HkLZvcfp" d="M5530 6600 c0 -21 10 -24 48 -14 36 10 27 34 -13 34 -28 0 -35 -4 -35 -20z"></path><path id="pTILgWDjm" d="M6660 6606 c0 -9 30 -21 88 -35 48 -13 143 -40 211 -63 l123 -40 -84 -37 c-91 -41 -239 -132 -358 -222 -94 -70 -281 -239 -304 -273 -16 -26 -16 -26 12 -26 38 0 122 84 122 123 0 24 4 27 33 27 33 0 67 24 67 48 0 6 10 12 23 14 12 2 26 13 32 26 5 12 18 22 27 22 10 0 18 5 18 10 0 6 7 10 15 10 9 0 18 7 21 15 4 8 12 15 18 15 7 0 22 9 34 20 12 11 26 20 32 20 5 0 10 5 10 10 0 6 7 10 15 10 8 0 15 5 15 10 0 6 7 10 15 10 8 0 15 5 15 10 0 6 7 10 15 10 8 0 15 7 15 15 0 8 8 15 19 15 10 0 49 14 87 31 59 27 79 31 142 30 71 -2 72 -2 72 23 0 21 7 27 41 36 140 38 317 50 429 31 25 -5 41 -9 35 -10 -204 -26 -352 -73 -496 -157 -35 -21 -66 -40 -69 -43 -3 -3 -22 -15 -44 -26 -21 -11 -41 -25 -43 -32 -3 -7 -12 -13 -19 -13 -8 0 -17 -7 -20 -15 -4 -8 -13 -15 -20 -15 -8 0 -17 -6 -20 -14 -3 -8 -14 -16 -25 -19 -11 -3 -23 -15 -26 -26 -3 -12 -13 -21 -22 -21 -24 0 -41 -20 -41 -47 0 -19 -5 -23 -28 -23 -40 0 -95 -58 -90 -95 3 -27 5 -26 93 55 216 198 445 342 640 403 115 36 188 47 314 49 107 1 111 2 111 23 0 19 -9 24 -77 38 -103 22 -232 37 -313 37 -63 0 -247 -29 -318 -49 -31 -9 -36 -7 -75 32 l-42 42 -3 -28 c-2 -17 4 -37 15 -50 17 -20 17 -20 0 -14 -10 4 -21 7 -23 7 -2 0 -4 6 -4 13 0 15 -121 57 -163 57 -15 0 -27 4 -27 9 0 10 -156 51 -195 51 -15 0 -25 -6 -25 -14z"></path><path id="p17Pu2PLxz" d="M5333 6577 c-85 -17 -103 -24 -103 -39 0 -23 -6 -23 140 7 68 14 124 25 126 25 2 0 4 7 4 15 0 20 -38 18 -167 -8z"></path><path id="pOl60jID1" d="M5065 6517 c-44 -11 -81 -24 -83 -29 -2 -4 -15 -8 -28 -8 -37 0 -114 -21 -114 -31 0 -5 -16 -9 -35 -9 -19 0 -35 -4 -35 -10 0 -5 -16 -10 -35 -10 -19 0 -35 -4 -35 -10 0 -5 -16 -10 -35 -10 -19 0 -35 -4 -35 -10 0 -5 -16 -10 -35 -10 -28 0 -35 -4 -35 -20 0 -11 4 -20 10 -20 5 0 119 31 252 69 134 37 276 76 316 86 46 11 72 22 72 31 0 19 -47 17 -145 -9z"></path><path id="pJ3dmcUJd" d="M4423 6505 c-43 -18 -42 -35 2 -35 31 0 35 3 35 25 0 14 -1 25 -2 25 -2 -1 -18 -7 -35 -15z"></path><path id="pc6WXhfMA" d="M4323 6465 c-43 -18 -42 -35 2 -35 31 0 35 3 35 25 0 14 -1 25 -2 25 -2 -1 -18 -7 -35 -15z"></path><path id="p8dcqI1iw" d="M4245 6430 c-11 -5 -107 -44 -214 -87 -107 -44 -197 -85 -199 -91 -2 -8 9 -12 32 -12 20 0 36 4 36 9 0 5 18 11 40 15 26 4 40 11 40 21 0 10 11 15 35 15 19 0 35 5 35 10 0 6 11 10 25 10 14 0 25 5 25 10 0 6 11 10 25 10 14 0 25 5 25 10 0 6 11 10 25 10 16 0 25 6 25 15 0 10 11 15 35 15 31 0 35 3 35 25 0 14 -1 25 -2 24 -2 0 -12 -4 -23 -9z"></path><path id="pbhQjn6xj" d="M4460 6340 c0 -5 -12 -10 -27 -10 -48 0 -73 -11 -73 -31 0 -24 4 -24 95 3 80 24 101 48 40 48 -19 0 -35 -4 -35 -10z"></path><path id="pvBHn0PRd" d="M4203 6268 c-18 -6 -33 -15 -33 -19 0 -5 -13 -9 -30 -9 -16 0 -30 -4 -30 -10 0 -5 -13 -10 -30 -10 -23 0 -30 -4 -30 -20 0 -11 3 -20 8 -20 27 -1 242 76 242 87 0 16 -50 16 -97 1z"></path><path id="p11fz9d166" d="M3686 6207 c-65 -24 -85 -47 -40 -47 14 0 44 5 65 12 31 9 39 16 39 35 0 12 -1 23 -2 22 -2 0 -30 -10 -62 -22z"></path><path id="pPidJHZxr" d="M3520 6150 c-47 -16 -111 -34 -142 -40 -38 -8 -58 -16 -58 -26 0 -24 100 -11 233 31 48 16 57 22 57 42 0 13 -1 23 -2 22 -2 0 -41 -13 -88 -29z"></path><path id="pAitsRQbj" d="M3828 6143 c-11 -3 -18 -14 -18 -29 l0 -24 47 18 c57 21 69 42 21 41 -18 -1 -41 -3 -50 -6z"></path><path id="piaygnUWN" d="M3673 6091 c-38 -11 -53 -21 -53 -33 0 -23 10 -23 98 3 43 13 72 27 72 35 0 18 -50 16 -117 -5z"></path><path id="pC5nryp5V" d="M3240 6066 c0 -16 82 -146 93 -146 4 0 7 16 7 35 0 19 -4 35 -10 35 -5 0 -10 7 -10 15 0 8 -9 15 -20 15 -16 0 -20 7 -20 30 0 23 -4 30 -20 30 -11 0 -20 -6 -20 -14z"></path><path id="p8XiwAoz4" d="M3590 5985 c0 -31 3 -35 25 -35 30 0 30 3 8 41 -23 38 -33 37 -33 -6z"></path><path id="p1BiZnlRPj" d="M3340 5904 c0 -12 55 -94 63 -94 4 0 7 16 7 35 0 19 -4 35 -10 35 -5 0 -10 7 -10 15 0 9 -9 15 -25 15 -14 0 -25 -3 -25 -6z"></path><path id="pa0OQfVtB" d="M3660 5875 c0 -31 3 -35 25 -35 30 0 30 3 8 41 -23 38 -33 37 -33 -6z"></path><path id="paOTjZPWh" d="M6219 5810 c-42 -47 -159 -177 -260 -290 -196 -219 -436 -487 -478 -532 l-25 -28 32 0 c22 0 32 5 32 15 0 8 6 15 13 15 21 0 67 54 67 78 0 15 6 22 18 22 26 0 52 32 52 63 0 22 5 27 23 27 32 0 87 59 87 93 0 22 5 27 23 27 31 0 57 29 57 63 0 22 5 27 23 27 31 0 57 29 57 63 0 22 5 27 23 27 31 0 67 39 67 73 0 22 5 27 23 27 31 0 67 39 67 73 0 22 5 27 23 27 29 0 57 29 57 58 0 15 6 22 18 22 11 0 33 16 51 35 25 27 31 43 29 67 l-3 32 -76 -84z"></path><path id="p16jOCNUYt" d="M3710 5795 c0 -19 5 -35 10 -35 6 0 10 -7 10 -15 0 -9 9 -15 25 -15 14 0 25 3 25 6 0 12 -55 94 -62 94 -5 0 -8 -16 -8 -35z"></path><path id="p11b3rLNMn" d="M3410 5794 c0 -12 55 -94 63 -94 4 0 7 16 7 35 0 19 -4 35 -10 35 -5 0 -10 7 -10 15 0 9 -9 15 -25 15 -14 0 -25 -3 -25 -6z"></path><path id="p1ETx35VVy" d="M6427 5651 c-65 -66 -77 -83 -77 -112 l0 -34 86 85 c47 47 94 97 105 113 l20 27 -28 0 c-23 0 -45 -17 -106 -79z"></path><path id="pOcCiKEUN" d="M3780 5685 c0 -19 5 -35 10 -35 6 0 10 -7 10 -15 0 -9 9 -15 25 -15 14 0 25 3 25 6 0 12 -55 94 -62 94 -5 0 -8 -16 -8 -35z"></path><path id="p1FYXDiDuj" d="M3864 5705 c-10 -25 4 -32 68 -34 108 -4 199 -62 248 -158 24 -45 25 -60 30 -250 5 -194 4 -202 -12 -180 l-18 22 0 -32 c0 -18 5 -33 10 -33 6 0 10 -9 10 -20 0 -13 7 -20 20 -20 13 0 20 -7 20 -20 0 -16 7 -20 35 -20 31 0 35 3 35 25 0 18 -5 25 -20 25 -16 0 -20 7 -20 30 0 17 -4 30 -10 30 -6 0 -10 63 -10 169 0 92 -4 192 -10 220 -12 65 -38 121 -55 121 -8 0 -15 10 -17 23 -2 14 -11 23 -25 25 -13 2 -23 10 -23 18 0 8 -7 14 -15 14 -8 0 -15 4 -15 10 0 13 -91 37 -163 43 -44 4 -59 2 -63 -8z"></path><path id="pQtLQdWTx" d="M4763 5713 c-24 -2 -43 -8 -43 -14 0 -5 -15 -9 -34 -9 -19 0 -41 -7 -50 -15 -8 -8 -19 -15 -25 -15 -6 0 -11 -3 -11 -8 0 -4 -10 -12 -22 -17 -12 -6 -26 -19 -32 -29 -6 -11 -19 -27 -28 -37 -35 -37 -42 -89 -45 -352 -4 -245 -3 -259 14 -255 17 3 18 22 23 253 6 277 8 290 75 363 50 56 115 86 200 92 63 5 70 7 73 28 4 24 4 24 -95 15z"></path><path id="pJBfvj0d1" d="M3480 5684 c0 -12 55 -94 63 -94 4 0 7 16 7 35 0 19 -4 35 -10 35 -5 0 -10 7 -10 15 0 9 -9 15 -25 15 -14 0 -25 -3 -25 -6z"></path><path id="p29JcY0cs" d="M3850 5575 c0 -19 5 -35 10 -35 6 0 10 -7 10 -15 0 -9 9 -15 25 -15 14 0 25 3 25 6 0 12 -55 94 -62 94 -5 0 -8 -16 -8 -35z"></path><path id="p1AO2HFPZs" d="M3550 5574 c0 -12 55 -94 63 -94 4 0 7 16 7 35 0 19 -4 35 -10 35 -5 0 -10 7 -10 15 0 9 -9 15 -25 15 -14 0 -25 -3 -25 -6z"></path><path id="pDXHhT6YQ" d="M3920 5465 c0 -19 5 -35 10 -35 6 0 10 -7 10 -15 0 -8 7 -15 15 -15 9 0 15 -9 15 -25 0 -14 5 -25 10 -25 6 0 10 -7 10 -15 0 -9 9 -15 25 -15 14 0 25 3 25 6 0 12 -105 174 -112 174 -5 0 -8 -16 -8 -35z"></path><path id="p39Hrss4L" d="M3620 5464 c0 -12 55 -94 63 -94 4 0 7 16 7 35 0 19 -4 35 -10 35 -5 0 -10 7 -10 15 0 9 -9 15 -25 15 -14 0 -25 -3 -25 -6z"></path><path id="pmZqYBncP" d="M6177 5392 c-18 -19 -27 -39 -27 -60 0 -28 -3 -32 -28 -32 -39 0 -82 -46 -82 -88 0 -28 -3 -32 -28 -32 -37 0 -62 -28 -62 -68 0 -28 -3 -32 -28 -32 -29 0 -82 -44 -82 -68 0 -7 -7 -12 -15 -12 -8 0 -15 -9 -15 -20 0 -50 43 -14 226 186 104 114 197 217 207 230 l19 24 -29 0 c-19 0 -39 -10 -56 -28z"></path><path id="p3Tc0pOWC" d="M3690 5354 c0 -12 55 -94 63 -94 4 0 7 16 7 35 0 19 -4 35 -10 35 -5 0 -10 7 -10 15 0 9 -9 15 -25 15 -14 0 -25 -3 -25 -6z"></path><path id="p6J8MTLsb" d="M4040 5275 c0 -19 5 -35 10 -35 6 0 10 -7 10 -15 0 -9 9 -15 25 -15 14 0 25 3 25 6 0 12 -55 94 -62 94 -5 0 -8 -16 -8 -35z"></path><path id="pNxI6jJDO" d="M3780 5214 c0 -12 34 -64 42 -64 4 0 8 16 8 35 0 31 -3 35 -25 35 -14 0 -25 -3 -25 -6z"></path><path id="p15M6Ok2bp" d="M4110 5165 c0 -31 3 -35 25 -35 30 0 30 3 8 41 -23 38 -33 37 -33 -6z"></path><path id="pZ0iXnZTk" d="M3830 5133 c0 -11 75 -123 83 -123 4 0 7 16 7 35 0 19 -4 35 -10 35 -5 0 -10 7 -10 15 0 8 -4 15 -10 15 -5 0 -10 7 -10 15 0 9 -9 15 -25 15 -14 0 -25 -3 -25 -7z"></path><path id="pgN6knn7m" d="M5068 4851 c17 -16 37 -42 42 -56 6 -15 10 -111 10 -215 0 -184 -1 -189 -22 -204 -26 -19 -28 -18 37 -21 61 -3 73 2 46 22 -20 13 -21 23 -21 209 0 239 -4 250 -97 285 l-28 10 33 -30z"></path><path id="pblFXS5q3" d="M7884 4845 c38 -35 46 -65 46 -171 0 -87 1 -94 20 -94 19 0 20 7 20 100 0 114 -12 150 -60 175 -44 23 -56 18 -26 -10z"></path><path id="pa2VAtR8p" d="M1597 4753 c-3 -2 2 -17 10 -34 16 -32 38 -38 46 -11 2 9 8 24 11 33 5 12 -1 15 -28 16 -19 1 -37 -1 -39 -4z"></path><path id="p1Fz8KI9XC" d="M1880 4742 c-22 -11 -57 -48 -96 -102 -33 -47 -70 -89 -82 -95 -31 -14 -27 -25 8 -25 74 0 128 -68 107 -136 -16 -51 -40 -67 -107 -72 l-60 -4 0 51 c0 44 -3 51 -20 51 -17 0 -20 -7 -20 -50 0 -43 -3 -52 -22 -60 -16 -6 8 -9 80 -9 78 -1 113 3 139 16 84 39 81 180 -4 221 -34 16 -40 26 -23 37 6 3 35 40 65 81 31 41 67 80 80 86 24 11 25 28 2 28 -7 0 -28 -8 -47 -18z"></path><path id="pGZ72FhYW" d="M2045 4751 c-2 -1 0 -14 6 -28 10 -27 12 -294 3 -330 -4 -13 -13 -23 -22 -23 -8 0 -12 -3 -8 -7 4 -4 62 -8 130 -10 l123 -3 0 30 c0 34 -12 40 -20 10 -5 -18 -14 -20 -81 -20 l-76 0 0 90 0 90 63 0 c36 0 68 -5 75 -12 9 -9 12 -5 12 22 0 31 -1 32 -18 17 -14 -13 -34 -16 -75 -15 l-57 3 0 85 0 85 78 -3 c70 -3 79 -6 105 -33 31 -34 32 -33 12 14 l-15 36 -116 3 c-64 2 -117 1 -119 -1z"></path><path id="p10Mm2Lsvk" d="M2375 4751 c-2 -2 40 -69 94 -150 54 -80 110 -165 125 -188 l26 -43 -110 0 c-91 0 -110 3 -110 15 0 8 -4 15 -10 15 -5 0 -10 -11 -10 -24 l0 -23 150 0 c83 1 150 3 150 5 0 1 -54 83 -120 181 -66 98 -120 182 -120 187 0 8 40 9 193 5 17 -1 40 -12 58 -30 16 -16 29 -28 29 -26 0 1 -7 19 -15 39 -17 41 0 37 -203 40 -68 0 -125 -1 -127 -3z"></path><path id="pOtC2Ses0" d="M2928 4676 l4 -85 -67 -106 c-47 -73 -75 -107 -91 -111 -45 -11 -24 -24 39 -24 70 0 85 7 60 25 -14 11 -11 21 33 98 27 48 51 87 54 87 9 -1 100 -159 100 -174 0 -9 -5 -16 -12 -16 -6 0 -8 -3 -4 -7 10 -11 114 -14 121 -4 2 5 -8 11 -23 14 -22 5 -43 28 -96 107 -67 102 -68 103 -68 174 -1 39 1 78 3 86 3 11 -5 16 -27 18 l-30 3 4 -85z"></path><path id="p1G7FmRTIy" d="M3248 4569 l3 -189 -23 -9 c-21 -7 -19 -9 17 -14 47 -7 132 -3 142 6 3 4 -14 7 -40 7 l-46 0 -5 53 c-3 28 -4 95 -2 147 2 52 5 111 5 131 l1 35 88 -4 c139 -6 191 -45 200 -148 10 -119 -30 -184 -126 -206 -50 -11 -53 -13 -25 -16 45 -5 107 14 141 43 58 49 78 160 43 240 -37 82 -89 105 -254 109 l-122 4 3 -189z"></path><path id="pGQ6BQxjJ" d="M4095 4749 c-4 -5 -2 -9 4 -9 7 0 12 -69 13 -197 l3 -198 115 111 c63 60 141 134 173 164 l57 53 0 -146 c0 -142 -1 -146 -22 -153 l-23 -7 23 -8 c13 -5 37 -7 55 -5 45 6 45 6 19 16 -23 10 -23 10 -20 200 2 104 1 190 -2 190 -3 0 -81 -72 -175 -160 l-170 -160 -3 137 c-1 75 0 143 2 150 3 7 7 16 8 19 5 11 -51 13 -57 3z"></path><path id="p77BqBpx9" d="M4728 4750 c-104 -31 -158 -162 -118 -284 32 -98 177 -145 310 -101 40 13 49 21 54 47 11 54 6 64 -12 28 -42 -85 -208 -98 -276 -22 -10 12 -26 45 -36 75 -16 48 -16 59 -4 108 18 68 40 99 88 123 90 44 211 12 247 -67 18 -41 19 -42 19 -11 0 34 -46 86 -93 103 -33 13 -139 13 -179 1z"></path><path id="p14QLEnYxl" d="M5280 4750 c-27 -4 -31 -7 -17 -13 17 -6 145 -259 178 -350 7 -20 15 -37 19 -37 3 0 41 81 85 181 44 99 91 192 105 206 l25 26 -25 -6 c-14 -4 -40 -7 -59 -7 -27 0 -31 -3 -22 -14 9 -10 7 -25 -8 -62 l-19 -49 -86 -3 -85 -3 -17 38 c-9 21 -17 50 -18 65 -1 32 -9 36 -56 28z m230 -200 c-40 -101 -50 -123 -57 -117 -6 7 -73 156 -73 164 0 2 34 3 75 3 l75 0 -20 -50z"></path><path id="p1BVuVbBHL" d="M6330 4749 c-19 -3 -29 -7 -22 -8 12 -1 110 -196 164 -325 28 -67 35 -74 46 -45 45 116 158 348 180 368 l27 24 -34 -6 c-18 -4 -44 -7 -57 -7 -17 0 -22 -4 -18 -15 3 -8 -2 -37 -12 -65 -16 -44 -21 -50 -46 -50 -15 0 -28 -4 -28 -10 0 -5 9 -10 21 -10 24 0 24 4 -19 -102 -15 -38 -29 -68 -32 -68 -3 0 -22 38 -42 85 l-36 85 34 0 c19 0 34 5 34 10 0 6 -18 10 -39 10 -36 0 -40 3 -55 40 -9 22 -16 51 -16 65 0 30 -6 33 -50 24z"></path><path id="p8pKGkQZz" d="M6900 4722 c-68 -191 -133 -342 -151 -347 -10 -4 -19 -10 -19 -14 0 -11 109 -10 116 0 3 5 0 9 -5 9 -6 0 -11 7 -11 16 0 25 82 274 89 270 3 -2 29 -72 56 -155 28 -82 53 -150 57 -151 5 0 56 125 108 264 6 16 13 26 16 24 8 -9 74 -229 74 -249 0 -11 -5 -19 -11 -19 -5 0 -8 -4 -5 -8 6 -10 106 -14 106 -4 0 4 -10 12 -22 17 -18 8 -35 44 -80 175 -31 91 -57 175 -57 188 -1 12 -4 22 -8 22 -5 0 -34 -70 -67 -155 -32 -86 -60 -154 -62 -152 -9 8 -94 260 -94 277 0 34 -16 30 -30 -8z"></path><path id="ppmrUfmym" d="M7505 4753 c-42 -11 -103 -64 -124 -106 -48 -99 -16 -207 79 -264 133 -81 309 -14 340 129 20 93 -29 190 -114 229 -39 18 -133 24 -181 12z m198 -61 c16 -16 37 -53 46 -83 15 -46 16 -59 5 -96 -29 -97 -83 -143 -168 -143 -103 0 -167 59 -174 161 -8 109 37 182 125 204 61 16 124 -1 166 -43z"></path><path id="p18eDlzGRQ" d="M8060 4749 c0 -4 7 -10 15 -13 14 -5 147 -269 176 -351 7 -19 15 -35 19 -35 3 0 43 86 90 190 48 109 93 196 104 204 18 12 14 13 -34 10 -30 -1 -57 -3 -59 -3 -2 -1 2 -7 8 -15 9 -10 7 -25 -8 -62 l-19 -49 -86 -3 -87 -3 -16 38 c-9 21 -16 50 -17 65 -1 24 -5 27 -43 30 -24 2 -43 0 -43 -3z m264 -186 c-9 -21 -25 -62 -36 -91 -12 -29 -22 -51 -23 -50 -4 4 -75 171 -75 175 0 2 34 3 75 3 l75 0 -16 -37z"></path><path id="pTQNLe2RT" d="M3748 4738 c8 -8 12 -64 12 -186 0 -165 -1 -174 -20 -179 -46 -12 -3 -20 115 -21 l125 0 -1 31 c-1 18 -3 24 -6 15 -5 -21 -49 -30 -118 -26 l-50 3 0 85 0 85 64 3 c45 2 67 -1 72 -10 6 -9 9 -4 9 14 0 20 -4 26 -15 22 -9 -4 -41 -7 -73 -7 l-57 -1 -3 82 -3 82 53 1 c104 2 132 -6 143 -42 4 -11 9 -18 12 -16 3 3 -1 22 -8 41 l-13 36 -125 0 c-97 0 -122 -3 -113 -12z"></path><path id="pcIpZMqBN" d="M5896 4738 c4 -7 65 -103 136 -214 70 -111 128 -204 128 -207 0 -4 -9 -7 -20 -7 -11 0 -20 -4 -20 -9 0 -8 99 -21 108 -15 2 1 -58 99 -133 218 -75 118 -136 218 -136 222 1 3 56 6 123 5 127 -2 158 -12 158 -49 0 -9 3 -13 6 -10 3 3 2 22 -1 42 l-7 36 -175 0 c-137 0 -173 -3 -167 -12z"></path><path id="pervT61Vv" d="M1610 4505 c0 -38 3 -45 20 -45 17 0 20 7 20 45 0 38 -3 45 -20 45 -17 0 -20 -7 -20 -45z"></path><path id="p4YRAXZIk" d="M7930 4405 c0 -8 -9 -20 -20 -27 -11 -7 -20 -15 -20 -18 0 -3 29 -7 65 -8 64 -3 88 10 41 22 -13 3 -26 15 -29 26 -6 23 -37 27 -37 5z"></path><path id="pY9gxFOWt" d="M5901 4316 c-1 -31 2 -37 15 -32 9 3 20 6 25 6 5 0 9 5 9 10 0 6 -9 10 -19 10 -12 0 -21 8 -24 23 -3 13 -5 7 -6 -17z"></path><path id="pBQeKQ8ji" d="M2592 4018 c-114 -115 -144 -140 -152 -128 -5 8 -8 21 -5 28 2 6 0 12 -5 12 -6 0 -10 9 -10 20 0 17 -3 19 -19 8 -15 -9 -23 -9 -35 1 -14 12 -16 10 -16 -18 0 -27 4 -31 28 -32 25 -2 25 -2 3 -6 -27 -5 -101 -70 -101 -89 0 -7 -13 -15 -30 -19 -26 -6 -28 -9 -17 -26 19 -30 34 -23 99 41 44 43 64 57 73 50 6 -5 15 -7 18 -3 4 3 7 -1 7 -11 0 -9 7 -19 16 -23 11 -4 63 41 180 158 90 90 164 167 164 171 0 5 -12 8 -28 8 -22 0 -55 -28 -170 -142z"></path><path id="p16zaFJKs2" d="M4210 3720 c0 -384 -2 -440 -15 -440 -8 0 -15 -7 -15 -15 0 -10 11 -15 35 -15 l35 0 0 455 c0 448 0 455 -20 455 -20 0 -20 -7 -20 -440z"></path><path id="pQO41sY90" d="M4410 4140 c0 -11 5 -20 10 -20 6 0 10 -9 10 -20 0 -11 5 -20 10 -20 6 0 10 -7 10 -15 0 -8 5 -15 10 -15 7 0 10 -140 10 -400 l0 -400 35 0 c24 0 35 5 35 15 0 8 -7 15 -15 15 -13 0 -15 54 -17 390 -3 371 -2 389 14 367 10 -12 18 -25 18 -29 0 -5 5 -8 10 -8 6 0 10 15 10 34 0 26 -5 36 -20 41 -11 3 -20 15 -20 26 0 10 -4 19 -10 19 -5 0 -10 6 -10 14 0 17 -22 26 -61 26 -22 0 -29 -5 -29 -20z"></path><path id="pNSjhlEyn" d="M4750 4139 c0 -10 4 -19 9 -19 5 0 12 -11 15 -25 4 -14 11 -25 16 -25 6 0 10 -7 10 -15 0 -8 7 -15 15 -15 9 0 15 -9 15 -25 0 -20 5 -25 25 -25 28 0 31 7 12 35 -7 11 -24 37 -37 59 l-23 39 104 -7 c255 -18 423 -81 553 -210 92 -90 143 -203 171 -378 9 -55 35 -51 35 5 0 74 -67 297 -89 297 -4 0 -12 14 -18 30 -6 17 -18 30 -27 30 -9 0 -16 8 -16 20 0 16 -7 20 -30 20 -25 0 -30 4 -30 24 0 29 -43 66 -76 66 -15 0 -24 6 -24 15 0 8 -12 18 -27 21 -16 4 -31 11 -34 16 -20 30 -340 89 -475 87 -66 -1 -74 -3 -74 -20z"></path><path id="pqJ6sjdKK" d="M5540 4135 c0 -16 6 -25 15 -25 8 0 15 -4 15 -10 0 -5 8 -10 18 -10 9 0 22 -10 27 -22 7 -17 20 -24 48 -26 34 -3 37 -6 37 -33 0 -16 4 -29 9 -29 5 0 11 -9 14 -20 3 -12 14 -20 26 -20 16 0 21 -6 21 -24 0 -14 6 -31 13 -38 6 -7 23 -35 37 -61 13 -26 28 -47 32 -47 5 0 8 -7 8 -16 0 -9 12 -49 26 -88 29 -80 54 -199 54 -257 0 -33 3 -39 21 -39 21 0 21 3 14 78 -26 281 -162 529 -373 680 -55 39 -62 39 -62 7z"></path><path id="p1CjjWs1KM" d="M4560 3984 c0 -12 55 -94 63 -94 4 0 7 16 7 35 0 19 -4 35 -10 35 -5 0 -10 7 -10 15 0 9 -9 15 -25 15 -14 0 -25 -3 -25 -6z"></path><path id="p14dQN6pmS" d="M4900 3915 c0 -19 5 -35 10 -35 6 0 10 -7 10 -15 0 -8 7 -15 15 -15 9 0 15 -9 15 -25 0 -14 5 -25 10 -25 6 0 10 -7 10 -15 0 -9 9 -15 25 -15 14 0 25 3 25 6 0 12 -105 174 -112 174 -5 0 -8 -16 -8 -35z"></path><path id="pT4zt7I6v" d="M4630 3874 c0 -12 34 -64 42 -64 4 0 8 16 8 35 0 31 -3 35 -25 35 -14 0 -25 -3 -25 -6z"></path><path id="pwPDr0JWP" d="M4700 3764 c0 -12 55 -94 63 -94 4 0 7 16 7 35 0 19 -4 35 -10 35 -5 0 -10 7 -10 15 0 9 -9 15 -25 15 -14 0 -25 -3 -25 -6z"></path><path id="p9VI9lqrc" d="M5020 3725 c0 -19 5 -35 10 -35 6 0 10 -7 10 -15 0 -8 7 -15 15 -15 9 0 15 -9 15 -25 0 -14 5 -25 10 -25 6 0 10 -7 10 -15 0 -9 9 -15 25 -15 14 0 25 3 25 6 0 12 -105 174 -112 174 -5 0 -8 -16 -8 -35z"></path><path id="p1G08aSHXP" d="M4770 3654 c0 -12 34 -64 42 -64 4 0 8 16 8 35 0 31 -3 35 -25 35 -14 0 -25 -3 -25 -6z"></path><path id="pqzKj4CDj" d="M5140 3535 c0 -19 5 -35 10 -35 6 0 10 -7 10 -15 0 -9 9 -15 25 -15 14 0 25 3 25 6 0 12 -55 94 -62 94 -5 0 -8 -16 -8 -35z"></path><path id="pBBBAd8LB" d="M4840 3544 c0 -12 105 -174 113 -174 4 0 7 16 7 35 0 19 -4 35 -10 35 -5 0 -10 7 -10 15 0 8 -7 15 -15 15 -9 0 -15 9 -15 25 0 14 -4 25 -10 25 -5 0 -10 7 -10 15 0 9 -9 15 -25 15 -14 0 -25 -3 -25 -6z"></path><path id="p18V9B9nhP" d="M3320 3471 c0 -51 20 -91 45 -91 l24 0 -22 60 c-23 64 -47 79 -47 31z"></path><path id="pdKPllRL0" d="M5210 3425 c0 -19 5 -35 10 -35 6 0 10 -7 10 -15 0 -8 7 -15 15 -15 9 0 15 -9 15 -25 0 -14 5 -25 10 -25 6 0 10 -7 10 -15 0 -8 5 -15 10 -15 6 0 10 -7 10 -15 0 -8 7 -15 15 -15 9 0 15 -9 15 -25 0 -14 5 -25 10 -25 6 0 10 -7 10 -15 0 -9 9 -15 25 -15 14 0 25 3 25 6 0 12 -175 284 -182 284 -5 0 -8 -16 -8 -35z"></path><path id="pNo3QcrPT" d="M5936 3278 c-10 -109 -43 -218 -92 -304 -24 -43 -44 -81 -44 -85 0 -4 -7 -9 -15 -13 -9 -3 -15 -18 -15 -35 0 -25 -4 -30 -27 -33 -17 -2 -32 -12 -38 -25 -5 -13 -15 -23 -21 -23 -10 0 -127 -72 -159 -98 -17 -14 -207 -72 -257 -78 -38 -5 -48 -11 -48 -25 0 -26 26 -24 146 6 115 29 258 96 329 156 162 135 259 325 280 552 6 72 5 77 -13 77 -17 0 -20 -10 -26 -72z"></path><path id="pMNIHvxNi" d="M5635 3303 c-40 -263 -91 -382 -215 -497 -73 -67 -147 -104 -236 -117 -38 -6 -84 -12 -101 -15 -22 -3 -33 -11 -33 -21 0 -14 11 -15 85 -9 91 7 175 25 175 38 0 4 9 8 20 8 11 0 20 5 20 10 0 6 7 10 15 10 8 0 24 9 35 20 11 11 24 20 28 20 12 0 82 74 82 87 0 6 7 13 15 17 8 3 15 12 15 21 0 8 4 15 9 15 13 0 68 131 91 216 11 42 23 112 26 155 6 68 5 79 -9 79 -11 0 -18 -12 -22 -37z"></path><path id="pcx5z26f7" d="M4980 3324 c0 -3 5 -14 10 -25 9 -16 7 -19 -10 -19 -11 0 -20 -4 -20 -10 0 -5 16 -10 35 -10 33 0 35 2 35 35 0 31 -3 35 -25 35 -14 0 -25 -3 -25 -6z"></path><path id="pRKhzzfid" d="M3470 3285 c0 -24 22 -35 73 -35 45 0 31 25 -23 42 l-50 16 0 -23z"></path><path id="ppRba01kW" d="M3670 3160 c0 -21 16 -25 58 -14 39 11 27 34 -18 34 -33 0 -40 -3 -40 -20z"></path><path id="p1BZ91czW" d="M4187 3173 c-12 -12 -7 -23 11 -23 16 0 17 -13 12 -177 -6 -200 -14 -230 -78 -296 -69 -71 -164 -112 -234 -100 -36 5 -38 4 -38 -21 0 -24 3 -26 45 -26 25 0 45 5 45 10 0 6 12 10 28 10 38 0 102 19 102 30 0 6 7 10 15 10 8 0 15 5 15 10 0 6 5 10 12 10 21 0 68 53 68 77 0 13 6 23 15 23 25 0 38 70 42 238 l5 162 59 0 59 0 0 35 0 35 -88 0 c-49 0 -92 -3 -95 -7z"></path><path id="pAP12zYu6" d="M4380 3145 c0 -35 0 -35 45 -35 l45 0 0 -235 0 -235 35 0 c24 0 35 5 35 15 0 8 -7 15 -15 15 -13 0 -15 33 -15 240 0 207 2 240 15 240 8 0 15 7 15 15 0 12 -16 15 -80 15 l-80 0 0 -35z"></path><path id="pGafRfDwm" d="M5030 3166 c0 -7 10 -16 23 -20 41 -11 57 -7 57 14 0 17 -7 20 -40 20 -27 0 -40 -4 -40 -14z"></path><path id="psdfEMP1m" d="M5230 3146 c0 -15 17 -20 103 -31 42 -6 47 -4 47 13 0 16 -10 20 -52 26 -79 9 -98 8 -98 -8z"></path><path id="pqMic4Zgn" d="M3440 3130 c0 -21 10 -24 48 -14 36 10 27 34 -13 34 -28 0 -35 -4 -35 -20z"></path><path id="p17ZaaaQjI" d="M5390 3116 c0 -7 9 -16 20 -19 15 -4 20 0 20 14 0 12 -7 19 -20 19 -11 0 -20 -6 -20 -14z"></path><path id="pDDILz97D" d="M3300 3089 c0 -15 4 -19 16 -15 9 3 20 6 25 6 5 0 9 7 9 15 0 9 -9 15 -25 15 -19 0 -25 -5 -25 -21z"></path><path id="pfFHODj2B" d="M4577 2672 c-9 -2 -17 -10 -17 -18 0 -11 15 -14 60 -14 47 0 60 3 60 15 0 8 -6 15 -12 16 -59 3 -77 4 -91 1z"></path><path id="p7w4M7CTV" d="M4717 2672 c-10 -2 -17 -10 -17 -18 0 -11 15 -14 65 -14 51 0 65 3 65 15 0 8 -6 15 -12 16 -62 3 -87 4 -101 1z"></path><path id="p2jCeNJUl" d="M5070 2550 c0 -17 7 -20 48 -20 61 0 92 9 92 26 0 11 -17 14 -70 14 -63 0 -70 -2 -70 -20z"></path></g></g><g id="l7e3BZyMeH5XYHRItshMOgZ" fill="rgb(217,216,211)" style="transform: none;"><g style="transform: none;"><path id="p1HE0PAhfk" d="M6038 6923 c-36 -9 -20 -33 22 -33 33 0 40 3 40 20 0 20 -20 24 -62 13z"></path><path id="p1BGNhktmu" d="M6170 6910 c0 -16 7 -20 35 -20 40 0 49 24 13 34 -38 10 -48 7 -48 -14z"></path><path id="plRzP3wk0" d="M5858 6913 c-33 -8 -20 -33 17 -33 28 0 35 4 35 20 0 20 -14 23 -52 13z"></path><path id="p1BzRSnRb4" d="M6270 6900 c0 -16 7 -20 35 -20 40 0 49 24 13 34 -38 10 -48 7 -48 -14z"></path><path id="p1C9dMp0TZ" d="M6400 6880 c0 -16 7 -20 35 -20 40 0 49 24 13 34 -38 10 -48 7 -48 -14z"></path><path id="puSIVGZuH" d="M5638 6883 c-33 -8 -20 -33 17 -33 28 0 35 4 35 20 0 20 -14 23 -52 13z"></path><path id="p17Q4WLtQ3" d="M6630 6825 c0 -22 4 -25 36 -25 44 0 42 18 -4 37 -31 13 -32 12 -32 -12z"></path><path id="phMPyRsaL" d="M5378 6828 c-42 -11 -52 -38 -14 -38 52 0 86 12 86 31 0 21 -14 22 -72 7z"></path><path id="phjXfOO0M" d="M5168 6773 c-33 -8 -20 -33 17 -33 28 0 35 4 35 20 0 20 -14 23 -52 13z"></path><path id="p1HtBvieD4" d="M6780 6755 c0 -22 4 -25 35 -25 43 0 44 10 6 33 -38 22 -41 22 -41 -8z"></path><path id="p1G1vLTA2R" d="M6220 6666 c0 -7 10 -16 23 -20 41 -11 57 -7 57 14 0 17 -7 20 -40 20 -27 0 -40 -4 -40 -14z"></path><path id="p11rM6Rrtt" d="M5920 6650 c0 -21 10 -24 48 -14 36 10 27 34 -13 34 -28 0 -35 -4 -35 -20z"></path><path id="pf8vou5g7" d="M6380 6656 c0 -13 28 -26 58 -26 6 0 12 9 12 20 0 16 -7 20 -35 20 -23 0 -35 -5 -35 -14z"></path><path id="pw8glGbz8" d="M6520 6636 c0 -13 28 -26 58 -26 6 0 12 9 12 20 0 16 -7 20 -35 20 -23 0 -35 -5 -35 -14z"></path><path id="pg0zh6VdM" d="M5580 6610 c0 -21 10 -24 48 -14 36 10 27 34 -13 34 -28 0 -35 -4 -35 -20z"></path><path id="p15eXBb6W9" d="M5470 6590 c0 -21 10 -24 48 -14 36 10 27 34 -13 34 -28 0 -35 -4 -35 -20z"></path><path id="p12afkSotv" d="M5270 6550 c0 -21 10 -24 48 -14 36 10 27 34 -13 34 -28 0 -35 -4 -35 -20z"></path><path id="p11SMwbsRT" d="M6850 6556 c0 -13 28 -26 58 -26 6 0 12 9 12 20 0 16 -7 20 -35 20 -23 0 -35 -5 -35 -14z"></path><path id="pmMcOvMVi" d="M5180 6530 c0 -21 10 -24 48 -14 36 10 27 34 -13 34 -28 0 -35 -4 -35 -20z"></path><path id="p35WsYayu" d="M7375 6534 c-11 -3 -62 -14 -113 -25 -73 -16 -96 -18 -107 -9 -11 9 -15 9 -15 1 0 -7 -21 -11 -52 -11 -49 -1 -51 -2 -30 -14 22 -12 18 -15 -74 -56 -114 -52 -323 -191 -449 -300 -124 -107 -239 -228 -535 -560 -140 -157 -279 -312 -309 -345 -190 -206 -220 -243 -205 -249 32 -12 349 -7 366 7 8 6 105 111 215 232 110 121 318 340 461 486 346 352 484 472 681 589 207 123 400 180 609 180 67 0 82 3 82 15 0 21 -35 33 -151 50 -89 14 -324 19 -374 9z"></path><path id="pwhf32Yq3" d="M4453 6515 c-43 -18 -42 -35 2 -35 31 0 35 3 35 25 0 14 -1 25 -2 25 -2 -1 -18 -7 -35 -15z"></path><path id="pL4lieLWa" d="M4341 6471 c-76 -32 -89 -51 -37 -51 25 0 36 4 36 15 0 10 11 15 35 15 31 0 35 3 35 25 0 14 -1 25 -2 25 -2 -1 -32 -13 -67 -29z"></path><path id="pAsU613hB" d="M4800 6430 c0 -21 10 -24 48 -14 36 10 27 34 -13 34 -28 0 -35 -4 -35 -20z"></path><path id="pMwv9ER1M" d="M4490 6340 c0 -21 10 -24 48 -14 36 10 27 34 -13 34 -28 0 -35 -4 -35 -20z"></path><path id="p1FItDi6L8" d="M3893 6285 c-43 -18 -42 -35 2 -35 31 0 35 3 35 25 0 14 -1 25 -2 25 -2 -1 -18 -7 -35 -15z"></path><path id="p1G9JZ0YHR" d="M4260 6270 c0 -21 10 -24 48 -14 36 10 27 34 -13 34 -28 0 -35 -4 -35 -20z"></path><path id="p110Gu57er" d="M3743 6225 c-43 -18 -42 -35 2 -35 31 0 35 3 35 25 0 14 -1 25 -2 25 -2 -1 -18 -7 -35 -15z"></path><path id="pcDFuSQbV" d="M3603 6175 c-43 -18 -42 -35 2 -35 31 0 35 3 35 25 0 14 -1 25 -2 25 -2 -1 -18 -7 -35 -15z"></path><path id="pUZweuemt" d="M3768 6123 c-22 -6 -24 -43 -3 -43 25 0 85 28 85 39 0 11 -49 13 -82 4z"></path><path id="pZAlTx9xY" d="M3240 6080 c0 -13 7 -20 20 -20 13 0 20 7 20 20 0 13 -7 20 -20 20 -13 0 -20 -7 -20 -20z"></path><path id="pcq9FmMdB" d="M3576 6054 c-3 -9 -6 -29 -6 -45 0 -24 4 -29 25 -29 28 0 29 3 15 30 -9 16 -6 21 15 26 14 3 25 12 25 20 0 20 -66 19 -74 -2z"></path><path id="pxHL0Jkjl" d="M3640 5905 c0 -31 3 -35 25 -35 30 0 30 3 8 41 -23 38 -33 37 -33 -6z"></path><path id="p10nGqzkJw" d="M3380 5844 c0 -12 34 -64 42 -64 4 0 8 16 8 35 0 31 -3 35 -25 35 -14 0 -25 -3 -25 -6z"></path><path id="p1Gs6u8xS" d="M3866 5712 c-11 -18 12 -29 71 -35 76 -6 139 -35 191 -88 76 -76 92 -140 92 -373 -1 -136 -3 -158 -14 -143 -7 9 -16 17 -20 17 -15 0 -4 -63 17 -95 l22 -35 138 0 137 0 0 223 c0 245 9 300 56 369 51 74 157 128 250 128 47 0 68 24 31 34 -34 9 -965 7 -971 -2z"></path><path id="p13L2B601v" d="M3830 5605 c0 -31 3 -35 25 -35 30 0 30 3 8 41 -23 38 -33 37 -33 -6z"></path><path id="poBnIExMx" d="M3520 5624 c0 -12 34 -64 42 -64 4 0 8 16 8 35 0 31 -3 35 -25 35 -14 0 -25 -3 -25 -6z"></path><path id="pSPums5pc" d="M3900 5495 c0 -31 3 -35 25 -35 30 0 30 3 8 41 -23 38 -33 37 -33 -6z"></path><path id="p2RQ833pP" d="M3590 5514 c0 -12 34 -64 42 -64 4 0 8 16 8 35 0 31 -3 35 -25 35 -14 0 -25 -3 -25 -6z"></path><path id="pecIut6lX" d="M3660 5404 c0 -12 34 -64 42 -64 4 0 8 16 8 35 0 31 -3 35 -25 35 -14 0 -25 -3 -25 -6z"></path><path id="p3kiDHcGx" d="M4090 5195 c0 -31 3 -35 25 -35 30 0 30 3 8 41 -23 38 -33 37 -33 -6z"></path><path id="p1B2r4ID0u" d="M3800 5184 c0 -12 34 -64 42 -64 4 0 8 16 8 35 0 31 -3 35 -25 35 -14 0 -25 -3 -25 -6z"></path><path id="p1DKHZOOjd" d="M5094 4825 c19 -27 26 -55 31 -118 8 -100 3 -305 -9 -329 -7 -15 -3 -18 20 -18 l29 0 -3 202 c-3 208 -15 279 -44 262 -7 -4 -10 -4 -6 1 10 10 -10 35 -28 35 -9 0 -6 -11 10 -35z"></path><path id="p1wBigSAu" d="M7905 4829 l26 -32 -3 -218 -3 -219 35 0 c20 0 30 4 23 8 -9 6 -13 60 -14 197 -1 207 -7 244 -46 275 -39 30 -48 24 -18 -11z"></path><path id="pkoCC9zxL" d="M4750 4753 c-43 -7 -104 -56 -127 -103 -51 -100 -14 -227 79 -276 46 -24 67 -16 24 9 -61 34 -88 94 -84 183 5 112 51 165 159 183 48 8 50 9 14 8 -22 0 -51 -2 -65 -4z"></path><path id="p968NVzgX" d="M4865 4749 c4 -5 15 -9 27 -9 11 0 38 -17 59 -39 22 -21 39 -33 39 -25 0 18 -60 63 -99 74 -19 5 -29 5 -26 -1z"></path><path id="pqx61pnfR" d="M7521 4753 c-97 -20 -170 -129 -155 -231 11 -75 98 -163 161 -162 10 0 0 9 -23 19 -89 40 -129 161 -85 256 38 85 124 129 209 106 83 -23 131 -92 132 -189 0 -84 -38 -145 -110 -176 -33 -14 -33 -15 -9 -16 33 0 83 34 122 82 32 40 44 101 33 163 -8 40 -64 108 -107 131 -31 15 -129 26 -168 17z"></path><path id="pnLGb39wi" d="M1611 4543 c1 -115 -1 -218 -5 -230 -6 -20 -4 -23 21 -23 l28 0 0 230 0 230 -23 0 -22 0 1 -207z"></path><path id="pJ5f3hp6I" d="M1857 4721 c-18 -16 -55 -61 -82 -100 -28 -38 -59 -74 -70 -79 -16 -7 -12 -10 25 -20 62 -17 81 -34 87 -81 7 -54 -2 -86 -35 -116 -25 -24 -26 -25 -5 -25 11 0 35 13 52 29 26 24 31 37 31 74 0 76 -18 103 -95 142 -6 3 -5 7 3 11 7 3 27 27 44 52 18 26 52 68 76 95 39 40 42 47 24 47 -12 0 -36 -13 -55 -29z"></path><path id="pwkNH9RB2" d="M2058 4569 c2 -127 -1 -185 -9 -195 -10 -12 3 -14 82 -14 52 0 104 -3 117 -6 15 -4 22 -2 22 7 0 11 -21 13 -100 11 l-100 -3 2 183 2 183 6 -180 c3 -104 7 -143 8 -92 l2 87 75 0 c41 0 75 3 75 8 0 4 -34 6 -75 4 l-75 -4 0 91 0 91 73 0 c44 0 83 -6 101 -15 25 -13 28 -13 22 1 -3 9 -6 18 -6 20 0 2 -51 4 -112 4 l-113 0 3 -181z"></path><path id="pYq69l0cX" d="M2391 4728 c7 -13 63 -99 125 -191 l113 -168 -120 3 c-75 2 -119 -1 -119 -7 0 -6 51 -9 137 -8 91 2 137 6 135 13 -1 6 -56 92 -122 190 l-120 180 110 0 c78 0 119 -4 139 -15 27 -14 29 -13 24 5 -5 19 -14 20 -160 20 l-154 0 12 -22z"></path><path id="p1EiRbfJGS" d="M2937 4674 l4 -76 -57 -91 c-32 -51 -69 -104 -83 -119 l-25 -28 42 0 c35 0 42 3 42 19 0 17 67 147 92 178 13 17 121 -158 112 -181 -5 -13 2 -16 37 -16 42 0 43 0 21 16 -13 8 -52 61 -89 117 -64 99 -66 104 -64 162 1 33 4 68 7 78 4 13 0 17 -19 17 -23 0 -24 -1 -20 -76z"></path><path id="p1GWs7ogvL" d="M3258 4576 c3 -115 0 -181 -8 -195 -11 -21 -9 -21 103 -21 135 0 193 16 236 66 86 98 49 267 -66 305 -48 15 -51 5 -6 -18 78 -41 107 -162 61 -253 -37 -71 -61 -83 -183 -88 l-105 -5 0 186 c0 185 0 186 23 190 12 2 5 5 -18 6 l-40 1 3 -174z"></path><path id="p11TikFOJL" d="M3363 4743 c15 -2 39 -2 55 0 15 2 2 4 -28 4 -30 0 -43 -2 -27 -4z"></path><path id="pGPnCLYBo" d="M3758 4738 c15 -15 17 -313 2 -352 l-9 -25 107 -3 c59 -2 111 0 117 5 5 4 -34 7 -85 7 l-95 0 3 90 3 90 76 0 c42 0 73 3 70 7 -4 3 -38 5 -77 4 l-70 -2 0 91 0 92 79 -3 c61 -3 84 -9 100 -23 22 -20 22 -20 13 5 -9 23 -12 24 -128 27 -94 2 -116 0 -106 -10z"></path><path id="pPeFwR3Un" d="M4118 4554 l3 -196 160 153 c88 83 162 156 165 161 3 4 10 6 15 3 12 -8 12 -272 -1 -296 -9 -16 -7 -19 15 -19 22 0 24 3 15 19 -6 12 -9 83 -7 180 2 88 0 166 -4 173 -6 9 -33 -11 -91 -67 -45 -44 -85 -82 -88 -85 -3 -3 -41 -39 -83 -80 l-78 -75 3 163 c3 139 1 162 -12 162 -13 0 -15 -27 -12 -196z"></path><path id="ptzXqqBDH" d="M5304 4691 c17 -33 35 -57 40 -54 5 4 6 1 2 -5 -7 -12 53 -152 66 -152 5 0 7 -3 5 -8 -8 -12 37 -97 48 -92 6 3 45 81 87 173 43 93 82 175 89 183 9 12 5 14 -25 14 -28 0 -36 -4 -36 -17 0 -10 -7 -39 -17 -65 l-16 -47 -89 -3 -89 -3 -25 54 c-13 30 -22 61 -20 68 4 9 -4 13 -23 13 l-28 0 31 -59z m226 -90 c0 -22 -74 -190 -82 -185 -4 3 -8 12 -8 20 0 8 -13 44 -30 81 -36 79 -36 80 -7 86 44 8 127 7 127 -2z"></path><path id="pSXB3p2a4" d="M6032 4530 c77 -121 139 -222 137 -223 -2 -1 -64 0 -137 3 -102 4 -132 2 -132 -7 0 -10 39 -13 160 -13 88 0 160 2 160 4 0 6 -200 325 -239 381 -15 22 -31 46 -35 53 -7 11 17 13 129 10 123 -3 138 -5 152 -23 14 -19 14 -19 11 5 l-3 25 -172 3 -172 2 141 -220z"></path><path id="p15IAla5VM" d="M6322 4733 c9 -10 53 -97 98 -193 46 -96 84 -176 85 -178 1 -1 37 75 80 170 42 95 84 183 91 196 14 21 13 22 -19 22 -26 0 -33 -4 -34 -21 -1 -12 -9 -42 -19 -68 l-16 -46 -90 0 -90 0 -19 50 c-10 28 -19 58 -19 68 0 12 -8 17 -32 17 -29 0 -30 -1 -16 -17z m220 -223 c-20 -50 -40 -90 -43 -90 -3 0 -20 36 -39 80 -19 44 -38 80 -44 80 -6 0 -6 3 0 9 8 9 139 20 156 13 4 -1 -10 -43 -30 -92z"></path><path id="pXnfOI6rI" d="M7106 4642 c-56 -152 -83 -210 -89 -192 -3 8 -28 77 -55 153 l-48 138 -53 -138 c-45 -115 -78 -196 -99 -235 -2 -5 10 -8 27 -8 23 0 31 5 31 17 0 25 90 293 98 293 4 0 27 -60 51 -133 67 -205 60 -201 114 -61 25 65 51 133 57 149 11 29 12 29 26 11 8 -11 14 -27 14 -35 0 -9 14 -59 30 -111 17 -51 30 -102 30 -112 0 -13 8 -18 25 -18 25 0 25 1 10 24 -9 13 -41 100 -73 194 l-57 171 -39 -107z"></path><path id="pa6ed1qph" d="M8142 4633 c32 -65 61 -123 66 -128 4 -6 8 -17 10 -25 2 -8 14 -40 28 -70 l25 -55 82 181 c45 100 88 189 96 198 12 14 10 16 -23 16 -30 0 -36 -4 -36 -21 0 -11 -9 -41 -20 -67 l-20 -47 -83 1 c-102 1 -110 2 -102 14 3 5 -1 23 -10 39 -8 17 -15 41 -15 56 0 21 -5 25 -28 25 l-28 0 58 -117z m193 -33 c5 -9 -50 -156 -67 -174 -4 -6 -13 4 -19 22 -6 18 -15 32 -21 32 -5 0 -7 4 -4 8 3 5 -6 31 -19 60 l-24 51 47 4 c93 7 101 7 107 -3z"></path><path id="p1HbG9g5D2" d="M4951 4411 c-6 -10 -24 -24 -41 -31 -17 -7 -28 -15 -25 -18 11 -11 85 31 85 50 0 23 -7 23 -19 -1z"></path><path id="pk0tzUzDk" d="M1850 4152 c0 -4 9 -13 20 -20 18 -11 20 -10 20 8 0 13 -7 20 -20 20 -11 0 -20 -3 -20 -8z"></path><path id="pHKhE7PIY" d="M2110 4152 c0 -4 9 -13 20 -20 18 -11 20 -10 20 8 0 13 -7 20 -20 20 -11 0 -20 -3 -20 -8z"></path><path id="p129BOF9be" d="M2705 4128 l-40 -37 31 -1 c37 0 57 20 52 52 -3 22 -4 22 -43 -14z"></path><path id="pzM25rJqr" d="M4220 4153 c0 -5 0 -203 0 -440 0 -381 -1 -433 -15 -433 -8 0 -15 -7 -15 -15 0 -13 26 -15 170 -15 144 0 170 2 170 15 0 8 -7 15 -15 15 -13 0 -15 50 -15 392 0 390 0 391 20 373 20 -18 20 -17 20 14 0 17 -10 47 -22 65 l-23 34 -137 1 c-76 1 -138 -2 -138 -6z"></path><path id="pQrQl3CnI" d="M4760 4133 c0 -16 8 -27 26 -33 35 -14 36 -13 24 10 -10 19 -8 20 27 16 21 -3 75 -8 120 -11 123 -8 275 -50 368 -100 155 -85 251 -212 296 -395 18 -74 20 -105 16 -245 -6 -185 -25 -271 -88 -404 -65 -133 -174 -230 -319 -282 -25 -9 -138 -14 -382 -17 l-348 -4 0 235 0 236 -27 4 c-20 3 -15 4 15 6 23 0 42 5 42 10 0 25 -329 28 -338 4 -2 -7 4 -13 15 -13 17 0 18 -9 12 -167 -4 -93 -12 -184 -18 -203 -18 -57 -63 -112 -122 -153 -48 -33 -66 -39 -132 -46 -84 -8 -90 -10 -77 -31 8 -13 100 -15 672 -15 717 0 731 1 899 55 177 58 333 182 423 335 58 99 83 179 102 320 21 160 4 302 -56 466 -60 166 -182 328 -313 418 l-48 33 -395 -3 -394 -3 0 -23z"></path><path id="p1FYJqobt1" d="M4880 3945 c0 -31 3 -35 25 -35 30 0 30 3 8 41 -23 38 -33 37 -33 -6z"></path><path id="prySEW8wS" d="M2390 3905 c0 -34 1 -35 37 -35 34 0 36 1 17 14 -16 13 -17 18 -6 35 11 19 10 21 -18 21 -28 0 -30 -3 -30 -35z"></path><path id="pliwTWAvF" d="M4600 3924 c0 -12 34 -64 42 -64 4 0 8 16 8 35 0 31 -3 35 -25 35 -14 0 -25 -3 -25 -6z"></path><path id="p9oMxF8g7" d="M4650 3844 c0 -12 34 -64 42 -64 4 0 8 16 8 35 0 31 -3 35 -25 35 -14 0 -25 -3 -25 -6z"></path><path id="p14ofu28hn" d="M4740 3704 c0 -12 34 -64 42 -64 4 0 8 16 8 35 0 31 -3 35 -25 35 -14 0 -25 -3 -25 -6z"></path><path id="pwDoQAkhT" d="M4790 3624 c0 -12 34 -64 42 -64 4 0 8 16 8 35 0 31 -3 35 -25 35 -14 0 -25 -3 -25 -6z"></path><path id="p5zKNG8WN" d="M5190 3455 c0 -31 3 -35 25 -35 30 0 30 3 8 41 -23 38 -33 37 -33 -6z"></path><path id="ptzgdQ663" d="M4930 3404 c0 -12 34 -64 42 -64 4 0 8 16 8 35 0 31 -3 35 -25 35 -14 0 -25 -3 -25 -6z"></path><path id="p56LervTy" d="M3380 3357 c0 -41 12 -51 55 -45 l26 3 -40 40 -41 39 0 -37z"></path><path id="p18s4bUcfg" d="M3660 3160 c0 -21 10 -24 48 -14 36 10 27 34 -13 34 -28 0 -35 -4 -35 -20z"></path><path id="p14AI7Hqqy" d="M5050 3166 c0 -13 28 -26 58 -26 6 0 12 9 12 20 0 16 -7 20 -35 20 -23 0 -35 -5 -35 -14z"></path><path id="pq6hg2MZO" d="M3503 3157 c-61 -8 -73 -13 -73 -28 0 -22 -4 -22 80 -9 123 19 130 21 130 35 0 17 -26 17 -137 2z"></path><path id="pOg0lppnJ" d="M5170 3156 c0 -13 28 -26 58 -26 6 0 12 9 12 20 0 16 -7 20 -35 20 -23 0 -35 -5 -35 -14z"></path><path id="pd43lXRl0" d="M5250 3146 c0 -13 28 -26 58 -26 6 0 12 9 12 20 0 16 -7 20 -35 20 -23 0 -35 -5 -35 -14z"></path><path id="pMT6LI9tK" d="M5360 3126 c0 -13 28 -26 58 -26 6 0 12 9 12 20 0 16 -7 20 -35 20 -23 0 -35 -5 -35 -14z"></path><path id="pphqclFDw" d="M3307 3113 c-4 -3 -7 -14 -7 -24 0 -15 5 -16 40 -7 50 13 54 38 7 38 -19 0 -37 -3 -40 -7z"></path></g></g><g id="l5mDwFHxi6c6x0htZ6Fwzqg" fill="rgb(210,196,162)" style="transform: none;"><g style="transform: none;"><path id="pMu3HdFfv" d="M6058 6923 c-10 -2 -18 -11 -18 -19 0 -11 19 -14 95 -14 74 0 95 3 95 14 0 7 -10 16 -22 20 -26 6 -124 6 -150 -1z"></path><path id="pLJRzHpZS" d="M5868 6913 c-10 -2 -18 -11 -18 -19 0 -10 13 -14 50 -14 43 0 50 3 50 20 0 16 -6 20 -32 19 -18 -1 -41 -3 -50 -6z"></path><path id="pAsZU9CBM" d="M6250 6903 c0 -17 12 -21 87 -31 101 -14 307 -62 311 -74 2 -4 15 -8 28 -8 13 0 24 -4 24 -8 0 -13 68 -42 100 -42 23 0 30 -5 30 -20 0 -13 9 -22 25 -26 14 -3 25 -10 25 -15 0 -5 9 -9 20 -9 11 0 20 -7 20 -15 0 -8 6 -15 14 -15 8 0 16 -7 20 -15 3 -8 14 -15 25 -15 10 0 21 -9 24 -20 4 -15 14 -20 42 -20 47 0 41 9 -62 86 -91 69 -204 133 -304 172 -76 31 -263 74 -371 87 -53 6 -58 5 -58 -12z"></path><path id="p13Dx2C6gt" d="M5675 6889 c-384 -69 -742 -180 -1275 -397 -204 -83 -535 -219 -599 -246 -64 -27 -77 -46 -31 -46 32 0 132 38 138 52 2 4 15 8 28 8 13 0 24 5 24 10 0 6 11 10 24 10 14 0 31 7 40 15 8 8 24 15 35 15 12 0 21 5 21 10 0 6 11 10 25 10 14 0 25 5 25 10 0 6 11 10 25 10 14 0 25 5 25 10 0 6 11 10 24 10 14 0 31 7 40 15 8 8 24 15 35 15 11 0 26 7 35 15 8 8 24 15 35 15 11 0 26 6 33 13 7 8 30 17 51 21 20 4 37 11 37 16 0 6 11 10 25 10 14 0 25 5 25 10 0 6 8 10 17 10 19 0 105 30 113 40 3 3 23 10 45 17 68 19 220 77 223 85 2 4 11 8 19 8 24 0 248 73 251 82 2 4 13 8 25 8 12 0 85 15 162 34 169 42 394 86 435 86 23 0 30 4 30 20 0 25 -18 25 -165 -1z"></path><path id="phMPkEdun" d="M6020 6660 c0 -17 7 -20 43 -20 56 0 87 9 87 26 0 11 -16 14 -65 14 -58 0 -65 -2 -65 -20z"></path><path id="po8DsPBrL" d="M6240 6666 c0 -16 30 -26 83 -26 30 0 37 4 37 20 0 18 -7 20 -60 20 -44 0 -60 -4 -60 -14z"></path><path id="p14YmOsjXw" d="M5890 6650 c0 -21 23 -26 68 -14 41 11 26 34 -23 34 -38 0 -45 -3 -45 -20z"></path><path id="pH7YJJe1o" d="M6390 6655 c0 -14 7 -16 135 -36 159 -24 389 -86 538 -146 89 -36 121 -37 115 -6 -2 12 -12 18 -28 17 -13 -1 -30 5 -38 12 -7 8 -24 14 -38 14 -13 0 -24 4 -24 8 0 11 -99 42 -133 42 -15 0 -27 4 -27 9 0 10 -210 62 -345 86 -115 19 -155 19 -155 0z"></path><path id="pibm63qp9" d="M5690 6645 c-234 -32 -850 -173 -858 -196 -2 -5 -15 -9 -29 -9 -14 0 -127 -30 -252 -66 -124 -37 -234 -69 -243 -71 -10 -3 -18 -9 -18 -14 0 -5 -12 -9 -27 -9 -15 0 -119 -30 -230 -67 -181 -60 -203 -70 -203 -89 0 -21 14 -17 268 66 287 95 728 226 974 290 182 47 515 113 648 130 152 18 160 20 160 35 0 19 -55 18 -190 0z"></path><path id="p199cSsVaA" d="M3615 6178 c-140 -50 -213 -69 -300 -77 -60 -5 -70 -9 -72 -26 -3 -22 684 -1106 705 -1113 8 -2 12 7 12 27 0 17 -4 31 -10 31 -5 0 -10 7 -10 15 0 8 -7 15 -15 15 -9 0 -15 9 -15 25 0 14 -4 25 -10 25 -5 0 -10 7 -10 15 0 8 -4 15 -10 15 -5 0 -10 7 -10 15 0 8 -7 15 -15 15 -9 0 -15 9 -15 25 0 14 -4 25 -10 25 -5 0 -10 7 -10 15 0 8 -4 15 -10 15 -5 0 -10 7 -10 15 0 8 -4 15 -9 15 -5 0 -12 11 -15 25 -4 14 -11 25 -16 25 -6 0 -10 7 -10 15 0 8 -4 15 -10 15 -5 0 -10 7 -10 15 0 8 -7 15 -15 15 -9 0 -15 9 -15 25 0 14 -4 25 -10 25 -5 0 -10 7 -10 15 0 8 -4 15 -9 15 -5 0 -12 11 -15 25 -4 14 -11 25 -16 25 -6 0 -10 7 -10 15 0 8 -4 15 -10 15 -5 0 -10 7 -10 15 0 8 -4 15 -10 15 -5 0 -10 7 -10 15 0 8 -7 15 -15 15 -9 0 -15 9 -15 25 0 14 -4 25 -10 25 -5 0 -10 7 -10 15 0 8 -4 15 -10 15 -5 0 -10 7 -10 15 0 8 -4 15 -9 15 -5 0 -12 11 -15 25 -4 14 -11 25 -16 25 -6 0 -10 7 -10 15 0 8 -4 15 -10 15 -5 0 -10 7 -10 15 0 8 -7 15 -15 15 -9 0 -15 9 -15 25 0 14 -4 25 -10 25 -5 0 -10 7 -10 15 0 8 -4 15 -10 15 -5 0 -10 7 -10 15 0 8 -4 15 -9 15 -5 0 -12 11 -15 25 -4 14 -11 25 -16 25 -6 0 -10 7 -10 15 0 8 -4 15 -10 15 -5 0 -10 7 -10 15 0 8 -4 15 -10 15 -5 0 -10 4 -10 9 0 5 37 14 83 21 80 12 237 56 247 69 3 3 27 12 55 19 58 15 58 15 53 40 -3 19 -9 18 -113 -20z"></path><path id="pR5GTfPBi" d="M3678 6096 c-50 -15 -68 -26 -68 -38 0 -24 10 -23 113 8 53 17 87 32 87 41 0 19 -52 15 -132 -11z"></path><path id="pWLr8jI8k" d="M3580 5995 c0 -19 5 -35 10 -35 6 0 10 -7 10 -15 0 -8 4 -15 9 -15 5 0 12 -11 15 -25 4 -14 11 -25 16 -25 6 0 10 -7 10 -15 0 -8 5 -15 10 -15 6 0 10 -7 10 -15 0 -8 4 -15 9 -15 5 0 12 -11 15 -25 4 -14 11 -25 16 -25 6 0 10 -7 10 -15 0 -8 5 -15 10 -15 6 0 10 -7 10 -15 0 -8 4 -15 9 -15 5 0 12 -11 15 -25 4 -14 11 -25 16 -25 6 0 10 -7 10 -15 0 -8 5 -15 10 -15 6 0 10 -7 10 -15 0 -8 7 -15 15 -15 9 0 15 -9 15 -25 0 -14 5 -25 10 -25 6 0 10 -7 10 -15 0 -8 4 -15 9 -15 5 0 12 -11 15 -25 4 -14 11 -25 16 -25 6 0 10 -7 10 -15 0 -8 5 -15 10 -15 6 0 10 -7 10 -15 0 -8 5 -15 10 -15 6 0 10 -7 10 -15 0 -8 7 -15 15 -15 9 0 15 -9 15 -25 0 -14 5 -25 10 -25 6 0 10 -7 10 -15 0 -8 4 -15 9 -15 5 0 12 -11 15 -25 4 -14 11 -25 16 -25 6 0 10 -7 10 -15 0 -8 5 -15 10 -15 6 0 10 -7 10 -15 0 -8 7 -15 15 -15 9 0 15 -9 15 -25 0 -14 5 -25 10 -25 6 0 10 -7 10 -15 0 -8 5 -15 10 -15 6 0 10 -7 10 -15 0 -8 4 -15 9 -15 5 0 12 -11 15 -25 4 -16 13 -25 26 -25 16 0 20 -7 20 -30 0 -23 5 -31 25 -36 14 -4 28 -4 31 -2 2 3 -100 169 -227 369 -127 200 -279 439 -338 531 -58 93 -109 168 -113 168 -5 0 -8 -16 -8 -35z"></path><path id="pfqdQiftU" d="M1865 4140 c10 -11 20 -20 22 -20 1 0 3 9 3 20 0 14 -7 20 -22 20 -20 0 -21 -1 -3 -20z"></path><path id="p1zFqbozq" d="M2125 4140 c10 -12 31 -20 48 -20 29 0 30 0 12 20 -10 12 -31 20 -48 20 -29 0 -30 0 -12 -20z"></path><path id="pwD1aKVqI" d="M2575 4130 l-29 -30 35 0 c21 1 44 9 62 25 35 31 34 35 -6 35 -24 0 -41 -8 -62 -30z"></path><path id="p1FiMtpvNS" d="M2622 4045 c-111 -109 -116 -114 -87 -115 26 0 48 17 135 105 57 58 107 105 112 105 4 0 8 5 8 10 0 6 -11 10 -25 10 -19 0 -56 -29 -143 -115z"></path><path id="peFbYtq0u" d="M4450 4154 c0 -3 13 -24 29 -47 46 -68 521 -817 521 -822 0 -3 -334 -4 -743 -3 l-742 3 -50 32 c-28 18 -59 46 -70 63 -26 39 -35 38 -35 -6 0 -27 5 -37 20 -41 11 -3 20 -12 20 -19 0 -8 7 -14 15 -14 8 0 15 -4 15 -10 0 -5 14 -10 30 -10 19 0 30 -5 30 -14 0 -8 15 -16 38 -20 20 -3 369 -6 775 -6 l737 0 0 40 c0 22 -4 40 -10 40 -5 0 -10 7 -10 15 0 8 -4 15 -10 15 -5 0 -10 7 -10 15 0 8 -7 15 -15 15 -9 0 -15 9 -15 25 0 14 -4 25 -10 25 -5 0 -10 7 -10 15 0 8 -4 15 -9 15 -5 0 -12 11 -15 25 -4 14 -11 25 -16 25 -6 0 -10 7 -10 15 0 8 -4 15 -10 15 -5 0 -10 7 -10 15 0 8 -4 15 -9 15 -5 0 -12 11 -15 25 -4 14 -11 25 -16 25 -6 0 -10 7 -10 15 0 8 -4 15 -10 15 -5 0 -10 7 -10 15 0 8 -7 15 -15 15 -9 0 -15 9 -15 25 0 14 -4 25 -10 25 -5 0 -10 7 -10 15 0 8 -4 15 -10 15 -5 0 -10 7 -10 15 0 8 -4 15 -9 15 -5 0 -12 11 -15 25 -4 14 -11 25 -16 25 -6 0 -10 7 -10 15 0 8 -4 15 -10 15 -5 0 -10 7 -10 15 0 8 -7 15 -15 15 -9 0 -15 9 -15 25 0 14 -4 25 -10 25 -5 0 -10 7 -10 15 0 8 -4 15 -10 15 -5 0 -10 7 -10 15 0 8 -4 15 -9 15 -5 0 -12 11 -15 25 -4 14 -11 25 -16 25 -6 0 -10 7 -10 15 0 8 -4 15 -10 15 -5 0 -10 7 -10 15 0 8 -4 15 -10 15 -5 0 -10 6 -10 14 0 14 -21 26 -46 26 -8 0 -14 -3 -14 -6z"></path><path id="pDYh8aBCk" d="M4760 4131 c0 -16 7 -36 15 -45 8 -8 15 -19 15 -25 0 -6 4 -11 9 -11 5 0 12 -11 15 -25 4 -14 11 -25 16 -25 6 0 10 -7 10 -15 0 -8 4 -15 9 -15 5 0 12 -11 15 -25 4 -14 11 -25 16 -25 6 0 10 -7 10 -15 0 -8 5 -15 10 -15 6 0 10 -7 10 -15 0 -8 4 -15 9 -15 5 0 12 -11 15 -25 4 -14 11 -25 16 -25 6 0 10 -7 10 -15 0 -8 5 -15 10 -15 6 0 10 -7 10 -15 0 -8 4 -15 9 -15 5 0 12 -11 15 -25 4 -14 11 -25 16 -25 6 0 10 -7 10 -15 0 -8 5 -15 10 -15 6 0 10 -7 10 -15 0 -8 7 -15 15 -15 9 0 15 -9 15 -25 0 -14 5 -25 10 -25 6 0 10 -7 10 -15 0 -8 5 -15 10 -15 6 0 10 -7 10 -15 0 -8 7 -15 15 -15 9 0 15 -9 15 -25 0 -14 5 -25 10 -25 6 0 10 -7 10 -15 0 -8 7 -15 15 -15 9 0 15 -9 15 -25 0 -14 5 -25 10 -25 6 0 10 -7 10 -15 0 -8 5 -15 10 -15 6 0 10 -7 10 -15 0 -8 7 -15 15 -15 9 0 15 -9 15 -25 0 -14 5 -25 10 -25 6 0 10 -7 10 -15 0 -8 5 -15 10 -15 6 0 10 -7 10 -15 0 -8 7 -15 15 -15 9 0 15 -9 15 -25 0 -14 5 -25 10 -25 6 0 10 -6 10 -12 0 -9 -15 -12 -50 -10 -41 3 -50 1 -50 -12 0 -9 2 -16 4 -16 2 0 40 -7 83 -15 43 -8 79 -15 81 -15 17 0 -44 104 -297 503 -164 260 -310 491 -325 515 -31 49 -46 54 -46 13z"></path><path id="pXo8ONAMo" d="M2405 3960 c-14 -15 -21 -17 -32 -9 -9 9 -13 9 -13 0 0 -6 -7 -11 -16 -11 -14 0 -14 -3 -4 -15 10 -13 10 -19 -5 -35 -18 -20 -17 -20 18 -20 30 0 37 4 37 20 0 13 7 20 20 20 16 0 20 7 20 35 0 41 -1 41 -25 15z"></path><path id="pWdw3s5tN" d="M2422 3844 c28 -28 48 -25 48 7 0 15 -7 19 -37 19 l-38 0 27 -26z"></path><path id="p11eFuTkJW" d="M3304 3569 c3 -17 6 -44 6 -60 0 -22 5 -29 20 -29 18 0 20 7 20 60 0 58 -1 60 -26 60 -24 0 -26 -3 -20 -31z"></path><path id="p58vnz1nW" d="M3540 3165 c-163 -26 -200 -36 -200 -56 0 -23 6 -23 79 -5 31 8 97 19 146 25 146 19 155 21 155 36 0 19 -59 18 -180 0z"></path><path id="pH4zDU5Ni" d="M5060 3166 c0 -16 30 -26 78 -26 25 0 32 4 32 20 0 18 -7 20 -55 20 -40 0 -55 -4 -55 -14z"></path><path id="pf3R7Ytz1" d="M5180 3156 c0 -13 28 -26 58 -26 6 0 12 9 12 20 0 16 -7 20 -35 20 -23 0 -35 -5 -35 -14z"></path></g></g><g id="loY0RlXuO7wOcAQsYT8Uz8" fill="rgb(195,173,130)" style="transform: none;"><g style="transform: none;"><path id="p8h17vyKQ" d="M5908 6913 c-10 -2 -18 -11 -18 -19 0 -10 13 -14 50 -14 43 0 50 3 50 20 0 16 -6 20 -32 19 -18 -1 -41 -3 -50 -6z"></path><path id="pigDK68nE" d="M6230 6901 c0 -16 11 -19 69 -25 111 -11 356 -71 379 -93 16 -16 82 -17 82 -2 0 30 -213 95 -403 123 -133 20 -127 20 -127 -3z"></path><path id="pnfzG8sLM" d="M5785 6903 c-56 -7 -250 -44 -337 -64 -64 -15 -88 -25 -88 -36 0 -19 31 -16 226 26 77 16 170 33 207 37 56 6 67 10 67 25 0 19 -8 21 -75 12z"></path><path id="p06p0VeQy" d="M5145 6760 c-88 -26 -182 -57 -209 -67 -57 -21 -72 -43 -29 -43 33 0 216 59 221 71 2 5 13 9 25 9 12 0 59 10 105 22 63 17 82 27 82 40 0 26 -16 23 -195 -32z"></path><path id="phNQQmIkk" d="M6790 6746 c0 -24 16 -36 51 -36 10 0 19 -7 19 -15 0 -8 7 -15 15 -15 8 0 15 -4 15 -10 0 -5 9 -10 20 -10 11 0 20 -7 20 -15 0 -8 9 -15 20 -15 11 0 20 -7 20 -15 0 -9 9 -15 25 -15 18 0 25 -5 25 -20 0 -24 17 -33 57 -28 26 3 23 7 -57 71 -78 62 -206 147 -223 147 -4 0 -7 -11 -7 -24z"></path><path id="prP62zFH9" d="M5980 6660 c0 -15 7 -20 28 -20 42 0 72 11 72 26 0 10 -14 14 -50 14 -43 0 -50 -3 -50 -20z"></path><path id="pB1vG2p2m" d="M6300 6666 c0 -14 29 -26 68 -26 15 0 22 6 22 20 0 17 -7 20 -45 20 -32 0 -45 -4 -45 -14z"></path><path id="pg5ddKnZD" d="M5870 6650 c0 -21 16 -25 58 -14 39 11 27 34 -18 34 -33 0 -40 -3 -40 -20z"></path><path id="pXjd12rcL" d="M6420 6655 c0 -9 14 -17 38 -20 132 -23 294 -59 395 -88 116 -34 117 -34 117 -13 0 17 -9 24 -45 34 -25 7 -56 12 -70 12 -14 0 -25 4 -25 8 0 14 -324 82 -387 82 -14 0 -23 -6 -23 -15z"></path><path id="pdNFIgVBk" d="M4726 6617 c-122 -47 -151 -73 -70 -64 27 3 50 10 52 16 2 6 15 11 28 11 13 0 24 4 24 9 0 5 18 11 40 15 34 5 40 10 40 31 0 14 -1 25 -2 25 -2 -1 -52 -20 -112 -43z"></path><path id="pYhE7MA14" d="M5760 6640 c0 -21 16 -25 58 -14 39 11 27 34 -18 34 -33 0 -40 -3 -40 -20z"></path><path id="p15RzEIZkQ" d="M5655 6643 c-154 -22 -648 -130 -653 -144 -2 -5 -16 -9 -31 -9 -37 0 -245 -60 -249 -71 -2 -5 -15 -9 -30 -9 -31 0 -175 -39 -182 -50 -3 -4 -25 -10 -50 -13 -24 -3 -46 -11 -48 -16 -2 -6 -15 -11 -29 -11 -15 0 -50 -8 -80 -17 -38 -12 -53 -22 -53 -35 0 -24 7 -23 114 11 167 53 651 190 797 225 122 30 417 89 552 111 23 4 37 11 37 20 0 15 -27 17 -95 8z"></path><path id="p2IBSXGwz" d="M4440 6506 c-85 -35 -270 -110 -410 -168 -140 -57 -273 -111 -294 -119 -48 -17 -59 -39 -20 -39 42 0 104 22 104 37 0 8 12 13 35 13 19 0 35 5 35 10 0 6 11 10 25 10 14 0 25 5 25 10 0 6 11 10 25 10 14 0 25 5 25 10 0 6 11 10 24 10 14 0 31 7 40 15 8 8 24 15 35 15 12 0 21 5 21 10 0 6 11 10 25 10 14 0 25 5 25 10 0 6 11 10 25 10 14 0 25 5 25 10 0 6 9 10 19 10 30 0 51 11 51 26 0 9 12 14 35 14 23 0 35 5 35 14 0 9 16 15 47 19 26 3 49 10 51 16 2 6 15 11 28 11 13 0 24 5 24 10 0 6 11 10 25 10 14 0 25 5 25 10 0 6 11 10 25 10 20 0 25 5 25 25 0 14 -1 25 -2 25 -2 -1 -73 -29 -158 -64z"></path><path id="p1EFRNqe3u" d="M7010 6510 c0 -10 93 -55 136 -66 31 -8 41 24 14 50 -11 11 -20 15 -20 9 0 -9 -10 -8 -35 3 -40 16 -95 19 -95 4z"></path><path id="ppVNTOH5U" d="M4005 6208 c-82 -28 -152 -54 -155 -58 -3 -4 -22 -10 -42 -14 -29 -5 -38 -12 -38 -26 0 -11 3 -20 8 -20 25 -1 442 147 442 158 0 23 -63 11 -215 -40z"></path><path id="pGA0xwBHx" d="M3631 6181 c-64 -23 -68 -45 -7 -39 54 6 59 9 54 36 -3 19 -4 19 -47 3z"></path><path id="pVmhXaHAV" d="M3338 6102 c-54 -9 -98 -21 -98 -26 0 -15 63 -116 72 -116 4 0 8 16 8 35 0 19 -4 35 -10 35 -5 0 -10 6 -10 14 0 10 25 18 85 27 71 10 85 15 85 31 0 21 0 21 -132 0z"></path><path id="pLxg21z5R" d="M3640 6080 c0 -5 -18 -10 -40 -10 l-40 0 0 -40 c0 -29 4 -40 15 -40 9 0 15 -9 15 -25 0 -14 5 -25 10 -25 6 0 10 -7 10 -15 0 -9 9 -15 25 -15 32 0 31 3 -6 61 -17 27 -28 52 -25 58 3 5 28 14 56 21 60 14 69 40 15 40 -19 0 -35 -4 -35 -10z"></path><path id="pAB2vdkEQ" d="M3320 5944 c0 -12 55 -94 63 -94 4 0 7 16 7 35 0 19 -4 35 -10 35 -5 0 -10 7 -10 15 0 9 -9 15 -25 15 -14 0 -25 -3 -25 -6z"></path><path id="pSxcHVslM" d="M3680 5835 c0 -31 3 -35 25 -35 30 0 30 3 8 41 -23 38 -33 37 -33 -6z"></path><path id="pwf7P1kKm" d="M3390 5834 c0 -12 55 -94 63 -94 4 0 7 16 7 35 0 19 -4 35 -10 35 -5 0 -10 7 -10 15 0 9 -9 15 -25 15 -14 0 -25 -3 -25 -6z"></path><path id="pv40bPHvR" d="M3730 5755 c0 -19 5 -35 10 -35 6 0 10 -7 10 -15 0 -9 9 -15 25 -15 14 0 25 3 25 6 0 12 -55 94 -62 94 -5 0 -8 -16 -8 -35z"></path><path id="p17QFijXUC" d="M3460 5724 c0 -12 55 -94 63 -94 4 0 7 16 7 35 0 19 -4 35 -10 35 -5 0 -10 7 -10 15 0 9 -9 15 -25 15 -14 0 -25 -3 -25 -6z"></path><path id="pdK6pN8g5" d="M3800 5645 c0 -19 5 -35 10 -35 6 0 10 -7 10 -15 0 -8 7 -15 15 -15 9 0 15 -9 15 -25 0 -14 5 -25 10 -25 6 0 10 -7 10 -15 0 -9 9 -15 25 -15 14 0 25 3 25 6 0 12 -105 174 -112 174 -5 0 -8 -16 -8 -35z"></path><path id="p16hAfQMKu" d="M3530 5614 c0 -12 55 -94 63 -94 4 0 7 16 7 35 0 19 -4 35 -10 35 -5 0 -10 7 -10 15 0 9 -9 15 -25 15 -14 0 -25 -3 -25 -6z"></path><path id="pF3s7TlZd" d="M3920 5455 c0 -19 5 -35 10 -35 6 0 10 -7 10 -15 0 -8 4 -15 9 -15 5 0 12 -11 15 -25 4 -14 11 -25 16 -25 6 0 10 -7 10 -15 0 -8 5 -15 10 -15 6 0 10 -7 10 -15 0 -9 9 -15 25 -15 14 0 25 3 25 7 0 11 -125 203 -132 203 -5 0 -8 -16 -8 -35z"></path><path id="pLUemgHj8" d="M3620 5474 c0 -12 105 -174 113 -174 4 0 7 16 7 35 0 19 -4 35 -10 35 -5 0 -10 7 -10 15 0 8 -7 15 -15 15 -9 0 -15 9 -15 25 0 14 -4 25 -10 25 -5 0 -10 7 -10 15 0 9 -9 15 -25 15 -14 0 -25 -3 -25 -6z"></path><path id="pruraob9o" d="M3740 5284 c0 -12 125 -204 133 -204 4 0 7 16 7 35 0 19 -4 35 -10 35 -5 0 -10 7 -10 15 0 8 -7 15 -15 15 -9 0 -15 9 -15 25 0 14 -4 25 -10 25 -5 0 -10 7 -10 15 0 8 -4 15 -10 15 -5 0 -10 7 -10 15 0 9 -9 15 -25 15 -14 0 -25 -3 -25 -6z"></path><path id="p1AbH2c39S" d="M4060 5235 c0 -19 5 -35 10 -35 6 0 10 -7 10 -15 0 -8 7 -15 15 -15 9 0 15 -9 15 -25 0 -14 5 -25 10 -25 6 0 10 -7 10 -15 0 -8 5 -15 10 -15 6 0 10 -7 10 -15 0 -8 9 -15 20 -15 15 0 20 -7 20 -28 0 -37 32 -75 60 -70 18 3 14 13 -48 108 -37 58 -81 126 -97 152 -17 27 -33 48 -37 48 -5 0 -8 -16 -8 -35z"></path><path id="pmZdbFuBQ" d="M3880 5064 c0 -12 55 -94 63 -94 4 0 7 16 7 35 0 19 -4 35 -10 35 -5 0 -10 7 -10 15 0 9 -9 15 -25 15 -14 0 -25 -3 -25 -6z"></path><path id="pnq8FxihQ" d="M1860 4152 c0 -4 90 -97 200 -207 l200 -200 65 65 64 64 23 -20 c13 -10 26 -23 30 -29 5 -6 40 22 84 67 55 56 75 82 72 98 l-3 21 -25 -23 c-14 -12 -46 -42 -72 -67 -41 -37 -50 -42 -64 -31 -13 12 0 29 105 134 67 67 121 125 121 129 0 4 -11 7 -26 7 -19 0 -54 -28 -137 -110 l-112 -109 -111 109 c-72 72 -118 110 -132 110 -12 0 -22 -3 -22 -8 0 -4 53 -61 119 -126 l118 -118 -49 -46 -49 -46 -172 172 c-139 139 -177 172 -200 172 -15 0 -27 -3 -27 -8z"></path><path id="p4hRSYkLm" d="M2725 4140 c-18 -19 -17 -20 7 -20 14 0 33 9 43 20 18 19 17 20 -7 20 -14 0 -33 -9 -43 -20z"></path><path id="p1Bo09P3gO" d="M4469 4128 c12 -18 45 -70 74 -115 28 -46 55 -83 60 -83 4 0 7 16 7 35 0 19 -4 35 -10 35 -5 0 -10 7 -10 15 0 8 -7 15 -15 15 -9 0 -15 9 -15 25 0 14 -4 25 -10 25 -5 0 -10 7 -10 15 0 8 -4 15 -10 15 -5 0 -10 5 -10 11 0 18 -27 39 -50 39 l-22 0 21 -32z"></path><path id="pedyn80OQ" d="M4750 4135 c0 -16 6 -25 15 -25 9 0 15 -9 15 -25 0 -14 5 -25 10 -25 6 0 10 -7 10 -15 0 -8 7 -15 15 -15 9 0 15 -9 15 -25 0 -14 5 -25 10 -25 6 0 10 -7 10 -15 0 -9 9 -15 25 -15 14 0 25 3 25 6 0 3 -28 51 -62 105 -61 99 -88 121 -88 74z"></path><path id="pgm7sZ4WU" d="M4610 3914 c0 -12 55 -94 63 -94 4 0 7 16 7 35 0 19 -4 35 -10 35 -5 0 -10 7 -10 15 0 9 -9 15 -25 15 -14 0 -25 -3 -25 -6z"></path><path id="pLINvNiSN" d="M4920 3875 c0 -24 5 -35 15 -35 9 0 15 -9 15 -25 0 -14 5 -25 10 -25 6 0 10 -7 10 -15 0 -8 5 -15 10 -15 6 0 10 -7 10 -15 0 -9 9 -15 25 -15 14 0 25 3 25 6 0 12 -105 174 -112 174 -5 0 -8 -16 -8 -35z"></path><path id="pS7GY6R55" d="M4680 3804 c0 -12 125 -204 133 -204 4 0 7 16 7 35 0 19 -4 35 -10 35 -5 0 -10 7 -10 15 0 8 -7 15 -15 15 -9 0 -15 9 -15 25 0 14 -4 25 -10 25 -5 0 -10 7 -10 15 0 8 -4 15 -10 15 -5 0 -10 7 -10 15 0 9 -9 15 -25 15 -14 0 -25 -3 -25 -6z"></path><path id="p5vD2s19v" d="M5040 3685 c0 -19 5 -35 10 -35 6 0 10 -7 10 -15 0 -8 7 -15 15 -15 9 0 15 -9 15 -25 0 -14 5 -25 10 -25 6 0 10 -7 10 -15 0 -8 5 -15 10 -15 6 0 10 -7 10 -15 0 -8 7 -15 15 -15 9 0 15 -9 15 -25 0 -14 5 -25 10 -25 6 0 10 -7 10 -15 0 -8 7 -15 15 -15 9 0 15 -9 15 -25 0 -14 5 -25 10 -25 6 0 10 -7 10 -15 0 -8 5 -15 10 -15 6 0 10 -7 10 -15 0 -8 7 -15 15 -15 9 0 15 -9 15 -25 0 -14 5 -25 10 -25 6 0 10 -7 10 -15 0 -8 4 -15 9 -15 5 0 12 -11 15 -25 4 -14 11 -25 16 -25 6 0 10 -7 10 -15 0 -10 -10 -15 -30 -15 -49 0 -37 -27 18 -39 26 -6 58 -14 71 -17 21 -6 23 -4 19 14 -8 27 -370 602 -380 602 -5 0 -8 -16 -8 -35z"></path><path id="p1EHfoFIlM" d="M3307 3593 c-4 -3 -7 -120 -7 -260 0 -196 3 -253 13 -253 6 0 35 7 62 15 28 9 93 22 145 30 159 25 160 25 160 40 0 9 -9 15 -22 15 -27 0 -263 -37 -295 -46 -23 -6 -23 -6 -22 117 0 68 3 118 6 112 2 -7 18 -13 34 -13 26 0 29 -4 29 -30 0 -16 5 -30 11 -30 6 0 17 -7 25 -15 9 -8 31 -15 50 -15 19 0 34 -4 34 -10 0 -5 16 -10 35 -10 49 0 47 27 -2 36 -127 23 -206 116 -220 258 -5 61 -17 79 -36 59z"></path><path id="pGCmHKK90" d="M4820 3584 c0 -12 55 -94 63 -94 4 0 7 16 7 35 0 19 -4 35 -10 35 -5 0 -10 7 -10 15 0 9 -9 15 -25 15 -14 0 -25 -3 -25 -6z"></path><path id="phf96oZae" d="M4890 3473 c0 -11 125 -203 132 -203 5 0 8 16 8 35 0 19 -4 35 -10 35 -5 0 -10 7 -10 15 0 8 -4 15 -10 15 -5 0 -10 7 -10 15 0 8 -7 15 -15 15 -9 0 -15 9 -15 25 0 14 -4 25 -10 25 -5 0 -10 7 -10 15 0 9 -9 15 -25 15 -14 0 -25 -3 -25 -7z"></path><path id="pS7eoJgpO" d="M5110 3167 c0 -16 17 -21 108 -32 48 -6 52 -5 52 14 0 14 -6 21 -19 21 -10 0 -46 3 -80 6 -51 6 -61 4 -61 -9z"></path></g></g><g id="l0Ip9MS12wCws2YIMkTlBd" fill="rgb(182,152,105)" style="transform: none;"><g style="transform: none;"><path id="p1Emxekgqs" d="M6770 6755 c0 -22 4 -25 35 -25 43 0 44 10 6 33 -38 22 -41 22 -41 -8z"></path><path id="pJNVDg9sS" d="M7050 6564 c0 -29 21 -54 44 -54 9 0 16 -7 16 -16 0 -8 6 -22 14 -30 20 -20 46 -17 46 5 0 16 -99 121 -114 121 -3 0 -6 -12 -6 -26z"></path><path id="pM7bbZQ3i" d="M4780 6430 c0 -21 10 -24 48 -14 36 10 27 34 -13 34 -28 0 -35 -4 -35 -20z"></path><path id="p15X7Ukrq6" d="M3820 6125 c0 -24 1 -25 32 -12 46 19 48 37 4 37 -32 0 -36 -3 -36 -25z"></path><path id="pbRqW7ByC" d="M3710 5785 c0 -31 3 -35 25 -35 30 0 30 3 8 41 -23 38 -33 37 -33 -6z"></path><path id="p8sg0Ajy2" d="M3660 5414 c0 -12 34 -64 42 -64 4 0 8 16 8 35 0 31 -3 35 -25 35 -14 0 -25 -3 -25 -6z"></path><path id="pmvPVfetW" d="M3920 5004 c0 -3 5 -14 10 -25 15 -28 40 -24 40 6 0 20 -5 25 -25 25 -14 0 -25 -3 -25 -6z"></path><path id="pWP091Ycv" d="M1860 4155 c0 -2 91 -94 202 -204 l203 -199 65 64 65 63 25 -24 c15 -14 30 -25 36 -25 11 0 324 312 324 323 0 28 -53 -12 -180 -138 -146 -145 -146 -146 -165 -125 -19 21 -18 22 103 142 67 66 122 122 122 124 0 2 -10 4 -22 4 -15 0 -59 -36 -135 -112 l-112 -112 -83 79 c-46 43 -98 94 -116 112 -31 31 -52 40 -64 28 -2 -3 50 -59 116 -125 l121 -120 -50 -49 -50 -50 -179 175 c-127 123 -187 174 -203 174 -13 0 -23 -2 -23 -5z"></path><path id="pygY3EFdh" d="M3310 3485 c0 -28 4 -35 20 -35 21 0 24 10 14 48 -10 36 -34 27 -34 -13z"></path><path id="pafIO2FkZ" d="M5380 3126 c0 -16 37 -28 46 -15 8 14 -5 29 -27 29 -10 0 -19 -6 -19 -14z"></path></g></g><g id="l5kAOFjMoNHV5ftFfsftCr6" fill="rgb(173,149,81)" style="transform: none;"><g style="transform: none;"><path id="p1BN5XqBCU" d="M5925 6914 c-385 -37 -736 -126 -1225 -310 -199 -74 -255 -97 -670 -269 -328 -136 -574 -220 -687 -236 -78 -11 -93 -16 -93 -31 0 -9 84 -149 187 -310 102 -161 221 -347 263 -413 42 -66 114 -180 160 -252 l85 -133 158 0 c135 0 158 2 154 15 -3 7 -68 112 -145 232 -76 120 -194 306 -262 413 -68 107 -154 243 -192 302 -37 59 -68 109 -68 112 0 3 9 6 20 6 10 0 167 49 347 109 294 98 405 133 823 256 744 219 1361 292 1790 211 195 -37 460 -114 550 -161 33 -17 50 -13 50 12 0 21 -124 139 -218 206 -157 113 -329 183 -542 222 -91 16 -390 28 -485 19z"></path><path id="p1GEewud14" d="M4460 4154 c0 -4 124 -201 275 -439 151 -238 275 -436 275 -439 0 -3 -323 -6 -718 -6 -805 0 -783 -2 -865 70 -55 49 -87 124 -87 205 0 42 -3 55 -15 55 -13 0 -15 -36 -15 -260 0 -143 1 -260 3 -260 1 0 25 7 52 16 28 8 106 24 175 34 115 18 181 20 855 20 723 0 807 -3 998 -36 20 -4 37 -3 37 1 0 6 -177 289 -470 750 -46 72 -106 167 -134 212 l-51 83 -157 0 c-87 0 -158 -3 -158 -6z"></path></g></g></svg>